<?xml version="1.0" standalone="no"?>
<!DOCTYPE svg PUBLIC "-//W3C//DTD SVG 1.1//EN" "http://www.w3.org/Graphics/SVG/1.1/DTD/svg11.dtd" >
<svg xmlns="http://www.w3.org/2000/svg">
<metadata>
<json>
<![CDATA[
{
	"fontFamily": "GOFont",
	"majorVersion": 1,
	"minorVersion": 0,
	"version": "Version 1.0",
	"fontId": "GOFont",
	"psName": "GOFont",
	"subFamily": "Regular",
	"fullName": "GOFont",
	"description": "Font generated by IcoMoon."
}
]]>
</json>
</metadata>
<defs>
<font id="GOFont" horiz-adv-x="1024">
<font-face units-per-em="1024" ascent="960" descent="-64" />
<missing-glyph horiz-adv-x="1024" />
<glyph unicode="&#x20;" horiz-adv-x="512" d="" />
<glyph unicode="&#xe900;" glyph-name="arrow-down" data-tags="arrow-down" d="M37.376 704l-37.888-37.888 512.512-512.512 512.512 512.512-38.195 38.093-38.093 38.195-436.224-436.224-217.907 217.907c-119.808 119.808-218.010 217.805-218.317 217.805s-17.613-17.101-38.4-37.888z" />
<glyph unicode="&#xe901;" glyph-name="arrow-left" data-tags="arrow-left" d="M473.6 704l-256-256 512.512-512.512 38.093 38.195 38.195 38.093-436.224 436.224 436.224 436.224-37.888 37.888c-20.787 20.787-38.093 37.888-38.4 37.888s-115.712-115.2-256.512-256z" />
<glyph unicode="&#xe902;" glyph-name="arrow-right" data-tags="arrow-right" d="M255.488 922.112l-37.888-37.888 436.224-436.224-436.224-436.224 38.195-38.093 38.093-38.195 512.512 512.512-256 256c-140.8 140.8-256.205 256-256.512 256s-17.613-17.101-38.4-37.888z" />
<glyph unicode="&#xe903;" glyph-name="arrow-up" data-tags="arrow-up" d="M255.488 485.888l-256-256 38.195-38.093 38.093-38.195 436.224 436.224 436.224-436.224 38.093 38.195 38.195 38.093-256 256c-140.8 140.8-256.205 256-256.512 256s-115.712-115.2-256.512-256z" />
<glyph unicode="&#xe904;" glyph-name="badge" data-tags="badge" d="M503.603 948.736c-23.552-2.15-36.352-6.656-79.974-28.365-59.802-29.696-63.488-30.925-114.893-38.298-56.422-7.987-69.837-11.059-89.088-20.582-27.546-13.619-44.442-34.406-70.861-87.347-23.757-47.309-30.822-56.627-71.373-94.208-35.226-32.461-47.514-46.694-56.525-65.536-6.656-14.029-8.704-22.938-9.318-40.96-0.614-17.92 0.717-31.13 6.963-64.819 9.216-50.586 9.421-69.222 0.922-115.405-6.656-36.25-7.373-41.165-7.885-58.675-0.922-26.419 2.15-40.346 12.902-59.085 10.035-17.408 20.89-29.491 54.067-60.211 38.707-35.738 47.411-47.514 71.987-96.973 29.184-58.47 48.128-78.131 88.064-91.136 12.698-4.096 25.088-6.349 60.211-11.264 60.211-8.397 66.253-10.342 129.229-42.291 22.016-11.059 32.461-15.77 42.496-18.944 34.202-10.957 59.494-9.933 94.72 3.994 4.813 1.843 24.883 11.571 44.544 21.402 50.483 25.395 60.006 28.365 116.224 35.84 13.21 1.741 30.003 4.301 37.274 5.734 32.563 6.349 56.218 18.125 72.294 36.147 13.619 15.155 20.992 27.034 39.424 63.078 24.883 48.742 33.075 59.904 66.662 90.624 38.093 34.816 51.405 50.074 61.338 70.144 9.114 18.637 11.776 34.202 9.83 58.368-1.229 14.95-2.253 21.504-8.704 57.856-8.397 47.411-8.090 56.525 4.915 129.229 7.27 40.243 5.734 63.283-5.939 87.347-8.909 18.534-22.938 35.226-50.278 60.211-17.92 16.282-37.069 35.43-43.827 43.725-10.24 12.595-16.486 23.142-32.358 54.067-22.118 43.11-31.232 57.139-45.978 71.066-21.914 20.582-43.827 28.672-99.021 36.147-64.819 8.704-71.578 10.854-129.536 40.243-34.202 17.203-49.357 23.347-66.355 26.726-12.902 2.56-21.197 3.072-32.154 2.15zM532.48 896.922c16.282-3.277 29.798-8.806 62.976-25.498 50.381-25.293 55.091-26.726 119.296-35.84 31.437-4.506 47.206-8.602 63.181-16.794 9.933-5.018 13.21-7.475 22.528-16.691 12.902-12.698 20.787-24.883 37.888-58.675 20.685-41.062 27.648-50.688 55.398-77.005 47.718-45.261 57.446-57.242 65.024-80.179 6.144-18.227 5.837-37.786-0.922-75.674-10.342-57.242-10.445-67.994-1.024-119.091 5.018-26.726 6.144-36.352 6.144-52.019 0-22.221-5.325-38.912-18.227-56.73-9.011-12.493-15.77-19.456-41.37-43.315-35.84-33.28-40.858-39.834-62.259-81.306-20.992-40.653-29.594-53.965-42.394-65.843-20.89-19.251-40.448-26.010-98.816-33.894-48.128-6.554-54.067-8.397-106.086-34.304-17.818-8.909-36.659-17.51-41.984-19.251-19.558-6.451-21.709-6.758-39.834-6.758-15.258 0-17.818 0.205-26.624 2.765-16.179 4.506-29.286 10.138-60.723 26.010-16.384 8.397-34.611 16.896-40.243 18.944-12.698 4.608-34.304 9.114-60.826 12.595-53.453 7.066-73.83 13.722-94.31 30.515-14.336 11.878-25.395 28.467-45.261 67.789-18.739 37.171-28.774 50.893-53.555 73.728-23.040 21.299-41.574 39.936-48.128 48.64-7.475 9.728-15.77 25.805-18.534 35.84-1.536 5.427-1.843 10.342-1.741 27.136 0 17.51 0.41 22.63 2.765 35.328 12.186 66.355 12.288 72.806 3.379 123.494-6.246 35.533-7.066 43.11-6.451 60.109 1.331 36.045 12.493 53.555 65.024 101.581 19.456 17.715 31.13 30.925 39.834 45.056 3.174 5.12 11.878 20.992 19.251 35.328s15.462 29.389 17.92 33.28c24.474 39.731 49.766 53.146 115.2 60.928 17.101 2.048 36.762 5.325 47.104 7.885 15.36 3.789 28.467 9.318 59.29 24.883 31.642 16.077 40.653 19.968 56.013 24.576 17.715 5.222 33.382 5.939 51.098 2.458zM497.152 847.872c-16.691-3.174-31.539-9.114-62.976-25.293-33.28-17.203-48.538-22.323-78.336-26.419-45.978-6.349-57.958-8.806-72.192-14.746-11.776-5.018-20.173-10.752-28.979-19.968-10.138-10.547-18.33-23.347-30.003-46.49-22.016-43.622-28.262-52.019-61.338-82.227-20.070-18.227-30.618-29.594-38.502-41.472-15.053-22.63-16.794-44.749-7.475-95.13 4.813-25.805 4.813-26.419 4.915-47.616 0-19.046-0.307-23.142-2.765-36.352-7.68-41.677-9.011-53.453-7.68-69.837 1.229-15.667 6.963-29.798 18.227-44.646 3.482-4.608 14.643-16.282 24.883-26.010 22.733-21.504 37.274-36.25 42.598-43.213 6.349-8.192 11.776-17.715 25.293-43.93 14.336-27.75 20.787-37.99 30.822-48.845 17.306-18.739 36.762-26.214 86.426-33.28 48.128-6.861 54.272-8.704 95.334-29.286 41.779-20.992 55.603-25.6 77.414-25.702 19.866-0.102 34.611 4.813 74.65 24.986 41.984 21.094 48.128 23.040 89.907 28.979 36.762 5.222 45.875 7.066 60.416 12.493 17.408 6.451 33.485 19.661 45.056 37.171 3.584 5.325 12.595 21.504 19.968 35.84s15.872 29.798 18.944 34.304c7.475 11.162 18.022 22.528 40.96 43.725 34.304 31.846 45.056 47.411 49.254 71.578 2.662 15.462 1.638 27.238-6.349 72.090-3.482 19.558-3.789 23.245-3.789 39.936 0 15.565 0.41 20.787 2.662 33.587 8.294 45.568 8.192 44.749 8.294 61.133 0 17.92-1.126 24.064-7.066 36.659-7.782 16.384-17.818 28.058-52.941 60.928-25.395 23.859-30.822 31.437-52.019 72.294-6.758 13.21-14.746 27.648-17.818 32.256-19.763 29.696-40.653 40.346-93.286 47.718-53.658 7.475-59.085 9.114-101.581 30.72-14.336 7.27-29.901 14.643-34.406 16.486-20.070 7.68-40.653 10.445-56.525 7.578zM528.179 797.184c13.517-2.765 22.221-6.349 50.381-20.48 34.714-17.408 45.67-20.89 81.92-25.6 42.291-5.53 59.187-11.469 74.547-26.010 9.523-9.011 17.408-20.89 28.365-42.394 18.432-36.454 24.064-44.544 45.978-64.922 31.949-30.106 40.55-39.936 47.104-54.272 5.325-11.571 6.246-16.896 6.144-33.587-0.102-12.698-0.819-18.125-4.506-37.888-3.277-17.613-4.403-26.522-4.813-37.888-0.614-16.589 0.102-23.45 5.53-53.248 2.97-16.384 3.686-22.63 3.789-34.816 0.102-16.179-0.922-22.016-5.53-32.358-6.144-13.824-13.824-22.938-39.424-46.797-28.672-26.829-33.382-32.973-51.917-68.915-19.456-37.478-28.979-49.152-48.128-58.675-13.312-6.554-24.166-9.318-52.634-13.414-42.496-5.939-49.459-8.090-83.763-25.19-41.984-21.094-53.965-24.678-75.981-22.938-14.746 1.126-29.082 6.246-55.706 19.763-39.219 19.866-45.568 21.914-87.347 27.853-30.822 4.506-42.189 7.27-54.374 13.21-20.992 10.342-30.822 22.426-51.61 63.693-15.258 30.106-21.914 38.912-47.206 62.259-26.522 24.371-34.714 33.997-41.574 49.152-1.843 3.994-3.994 9.83-4.71 12.902-2.048 8.192-1.536 29.696 0.922 44.032 1.229 6.451 3.379 18.739 4.813 27.136 3.994 22.016 3.891 38.707-0.512 63.488-5.734 32.973-6.349 37.683-6.451 50.688-0.102 14.541 1.434 21.811 6.963 33.28 5.632 11.571 12.288 19.251 39.322 45.466 30.003 29.082 32.666 32.666 49.869 65.843 12.8 24.678 19.968 36.25 27.546 44.646 9.216 10.24 22.221 17.92 37.888 22.528 9.933 2.867 14.95 3.789 43.11 7.782 38.4 5.53 42.598 6.861 80.998 26.010 13.414 6.758 27.648 13.414 31.539 14.848 18.842 6.963 32.461 8.294 49.459 4.813zM498.176 747.52c-10.65-2.355-20.89-6.554-42.496-17.408-31.027-15.565-37.478-17.51-77.312-23.040-32.87-4.608-47.514-10.65-60.621-24.883-7.373-8.090-11.674-15.053-23.142-37.069-5.53-10.65-12.288-22.63-14.848-26.624-3.072-4.71-13.414-15.872-30.413-32.768-27.341-27.341-31.334-32.358-35.43-45.466-4.198-13.824-3.789-25.293 2.662-61.542 4.915-27.238 4.608-36.762-2.15-73.216-3.789-20.48-3.994-39.629-0.512-49.664 4.915-13.926 12.493-23.859 32.563-42.598 28.365-26.419 31.539-30.618 48.742-63.693 12.288-23.654 17.306-31.13 26.317-39.526 12.902-11.878 27.341-16.794 64.512-22.118 34.714-5.018 37.683-5.939 70.963-22.528 32.154-16.179 45.773-19.866 63.693-17.51 12.288 1.638 23.245 5.837 47.821 18.125 31.846 15.974 35.84 17.203 69.734 21.914 37.786 5.427 51.405 10.035 64.307 22.221 9.114 8.602 15.667 18.534 28.262 42.803 5.53 10.752 12.083 22.426 14.541 26.112 2.662 3.994 14.746 16.896 29.696 31.744 26.317 26.214 29.594 30.31 34.714 43.827 2.458 6.246 2.662 8.192 2.662 21.709 0 12.595-0.614 18.125-3.789 35.84-6.042 34.202-6.042 39.424 0.41 74.752 5.427 29.798 5.12 45.261-1.126 59.085-5.837 12.8-13.926 22.323-38.195 44.851-8.602 7.987-17.818 17.715-21.606 22.733-3.584 4.813-11.162 17.613-16.998 28.774-12.288 23.757-19.251 34.509-27.034 42.189-13.21 13.005-25.805 17.715-62.054 23.040-38.707 5.734-42.086 6.758-75.264 23.347-11.264 5.632-23.45 11.366-27.136 12.698-13.722 5.222-29.082 6.656-41.472 3.891z" />
<glyph unicode="&#xe905;" glyph-name="ban" data-tags="ban" d="M486.4 959.283c-50.278-3.379-91.341-11.162-133.632-25.293-63.59-21.197-116.122-50.79-170.496-95.642-15.053-12.493-47.718-45.261-61.030-61.133-67.891-81.613-107.418-174.592-118.886-280.064-2.56-23.654-2.56-76.39 0.102-100.864 10.138-96.051 43.11-181.043 99.84-257.024 80.486-107.93 199.578-180.019 331.674-200.704 15.872-2.56 17.101-2.56 80.077-2.56 62.771 0 64.307 0.102 79.872 2.458 39.322 6.246 78.848 17.408 116.326 32.973 103.834 43.11 194.458 122.982 248.934 219.546 10.547 18.534 25.19 48.845 31.539 65.024 12.493 31.642 23.040 68.915 29.389 103.936l3.174 17.92 0.41 62.362c0.41 59.085 0.307 63.283-1.741 77.312-14.029 98.099-53.453 185.651-118.17 262.246-11.981 14.336-39.219 41.574-53.862 54.17-37.786 32.358-65.434 50.688-109.158 72.704-58.778 29.389-121.139 46.49-188.723 51.814-17.306 1.331-51.917 1.843-65.638 0.819zM542.822 794.112c69.939-6.963 133.427-32.666 187.802-76.083 12.902-10.342 41.677-39.117 51.917-51.917 43.418-54.579 69.325-118.784 75.571-187.392 2.355-26.112 0.819-63.283-3.584-89.395-5.427-31.437-17.818-69.222-32.461-98.406l-4.096-8.090-470.733 470.733 7.373 3.994c34.202 18.125 83.251 32.461 125.133 36.454 13.312 1.229 50.79 1.331 63.078 0.102zM441.856 377.037l235.11-234.906-11.571-5.734c-32.563-16.077-66.048-26.317-106.291-32.666-13.107-2.048-18.534-2.253-47.104-2.253-28.365 0-34.099 0.307-47.104 2.253-23.45 3.686-42.086 8.090-61.44 14.541-31.232 10.342-57.958 23.142-82.637 39.629-19.558 13.005-35.43 26.214-53.658 44.339-19.354 19.354-28.57 30.31-42.189 50.176-29.798 43.827-48.64 92.262-57.242 147.456-1.946 13.107-2.253 18.739-2.253 47.616 0 26.112 0.307 35.226 1.741 45.056 4.301 28.979 11.981 58.675 21.094 81.715 6.042 15.155 16.486 37.581 17.613 37.581 0.41 0 106.598-105.677 235.93-234.803z" />
<glyph unicode="&#xe906;" glyph-name="bell" data-tags="bell" d="M484.352 959.386c-1.946-0.205-9.318-0.922-16.384-1.536-28.16-2.355-60.621-9.421-91.648-19.763-91.648-30.618-175.514-98.611-226.816-184.013-29.594-49.152-48.128-101.99-56.525-161.075-2.048-14.541-2.253-20.275-2.56-99.123l-0.41-83.763h-90.010v-153.6h1024v153.6h-90.112v65.843c0 87.962-1.331 109.568-8.704 146.637-26.726 133.632-118.067 246.886-243.712 301.978-40.346 17.818-93.286 30.822-139.162 34.406-12.083 0.922-49.357 1.126-57.958 0.41zM310.784 199.987c-7.782-27.341-9.421-64.41-4.096-92.467 9.728-50.688 34.714-92.672 74.24-125.030 38.195-31.13 89.702-48.23 138.752-46.080 54.272 2.355 101.376 22.938 139.776 61.030 30.003 29.696 49.562 66.97 57.856 110.080 5.325 28.058 3.686 65.126-4.096 92.467l-1.638 5.325h-399.155l-1.638-5.325z" />
<glyph unicode="&#xe907;" glyph-name="box" data-tags="box" d="M0 448v-512h1024v1024h-371.712v-512h-267.264v512h-385.024v-512z" />
<glyph unicode="&#xe908;" glyph-name="boxes" data-tags="boxes" d="M266.24 713.216v-246.784h492.544v493.568h-183.296v-245.76h-126.976v245.76h-182.272v-246.784zM0 182.272v-246.272h493.568v492.544h-183.296l-0.205-123.085-0.307-123.187h-126.976l-0.307 123.187-0.205 123.085h-182.272v-246.272zM531.456 182.272v-246.272h492.544v492.544h-182.272v-246.784h-126.976v246.784h-183.296v-246.272z" />
<glyph unicode="&#xe909;" glyph-name="briefcase" data-tags="briefcase" d="M331.469 897.843c-0.41-0.307-0.717-46.387-0.717-102.4v-101.683h67.584v136.192h227.328v-136.192h67.584l-0.205 102.195-0.307 102.093-180.326 0.307c-99.123 0.102-180.634-0.102-180.941-0.512zM0.205 637.235l0.307-101.683h1022.976l0.307 101.683 0.205 101.581h-285.696v-38.81c0-21.299-0.307-41.574-0.614-45.056l-0.717-6.246h-156.365v90.112h-141.312l-0.205-44.749-0.307-44.851h-152.576l-0.307 44.851-0.205 44.749h-285.696l0.205-101.581zM0.205 255.283l0.307-235.827 1023.488-0.512v472.064h-375.808v-214.016h-227.328v214.016h-420.864l0.205-235.725zM465.92 406.528v-84.48h137.216v168.96h-137.216v-84.48z" />
<glyph unicode="&#xe90a;" glyph-name="calendar" data-tags="calendar" d="M119.808 767.488v-192.512h175.104v385.024h-175.104v-192.512zM729.088 767.488v-192.512h175.104v385.024h-175.104v-192.512zM0.717 770.867c-0.41-0.307-0.717-188.314-0.717-417.792v-417.075h1024v835.584l-101.888-0.512-0.307-107.213-0.205-107.315h-209.92v215.040l-398.848-0.512-0.307-107.213-0.205-107.315h-209.92v215.040h-50.483c-27.853 0-50.893-0.307-51.2-0.717zM465.92 372.736v-75.264l-363.008 0.512-0.307 75.059-0.205 74.957h363.52v-75.264zM921.395 373.043l-0.307-75.059h-362.496l-0.307 75.059-0.205 74.957h363.52l-0.205-74.957zM465.92 113.152v-74.752h-363.52v149.504h363.52v-74.752zM921.6 113.152v-74.752h-363.52v149.504h363.52v-74.752z" />
<glyph unicode="&#xe90b;" glyph-name="cart" data-tags="cart" d="M0 937.472v-22.528h54.272c42.701 0 54.272-0.307 54.272-1.229 0-5.837 127.181-803.942 128.307-805.376 0.717-1.024 9.523-1.331 37.478-1.434 32.87-0.102 35.84-0.205 30.208-1.434-21.606-4.71-43.418-20.275-54.579-39.117-9.523-16.077-13.005-29.901-12.083-48.947 0.819-19.046 6.451-33.997 18.227-48.845 11.059-14.029 24.883-23.245 43.418-29.082 8.397-2.662 10.547-2.97 24.064-2.867 14.234 0 15.258 0.205 25.088 3.584 12.186 4.198 21.504 9.216 29.184 15.77 28.57 24.474 38.093 62.464 24.474 97.792-9.626 25.088-34.202 45.978-60.621 51.712-5.325 1.126 33.69 1.331 252.723 1.331 217.6 0 258.048-0.205 252.826-1.331-21.606-4.71-43.418-20.275-54.579-39.117-9.421-15.77-13.005-30.106-12.083-48.333 0.922-19.354 6.656-34.816 18.33-49.562 10.957-13.926 24.883-23.142 43.315-28.979 8.397-2.662 10.547-2.97 24.064-2.867 14.234 0 15.258 0.205 25.088 3.584 24.064 8.294 40.038 22.016 50.688 43.418 7.27 14.848 8.602 20.685 8.704 38.4 0 15.872-1.229 22.016-7.168 35.533-10.342 23.245-34.099 42.496-59.29 47.923-5.632 1.229-2.56 1.331 30.413 1.434l36.557 0.102v45.056l-681.37 0.512-7.987 51.712c-4.301 28.467-7.885 52.019-7.987 52.531 0 0.41 158.515 0.717 352.256 0.717h352.256l0.512 2.253c0.512 2.765 65.024 517.837 65.024 519.782 0 0.922-85.709 1.229-424.96 1.229-233.677 0-424.96 0.307-425.062 0.819 0 0.41-6.144 40.55-13.619 89.293l-13.517 88.576-146.842 0.512v-22.528z" />
<glyph unicode="&#xe90c;" glyph-name="chart" data-tags="chart" d="M0 448v-512h1024v102.4h-921.6v921.6h-102.4v-512zM921.6 550.4v-409.6h102.4v819.2h-102.4v-409.6zM460.8 499.2v-358.4h102.4v716.8h-102.4v-358.4zM691.2 441.344v-300.544h102.4v601.088h-102.4v-300.544zM230.4 375.296v-234.496h102.4v468.992h-102.4v-234.496z" />
<glyph unicode="&#xe90d;" glyph-name="chart-pie" data-tags="chart-pie" d="M451.584 956.314c-31.027-4.096-52.531-8.294-77.312-15.258-118.886-33.485-220.672-107.52-288.973-210.432-121.446-182.784-112.128-423.936 23.142-597.402 13.414-17.306 21.504-26.522 38.298-43.52 29.389-29.798 56.832-52.122 90.317-73.421 118.272-75.571 264.090-99.021 399.974-64.512 50.278 12.8 93.184 30.515 137.318 56.832 21.606 12.8 56.218 37.069 58.778 41.165 0.307 0.512-80.282 81.92-179.2 180.736l-179.814 179.814v547.635l-5.837-0.102c-3.277-0.102-10.752-0.819-16.691-1.536zM549.888 721.92v-236.032h472.064v4.915c0 2.662-0.922 11.776-1.946 20.173-9.933 76.902-35.738 148.582-76.186 211.866-46.182 72.192-109.261 131.482-184.627 173.466-46.387 25.907-107.52 47.411-158.618 55.91-13.926 2.355-41.37 5.734-46.285 5.734h-4.403v-236.032zM735.232 256c84.787-84.787 154.112-154.112 154.214-154.112 0.512 0 18.227 21.299 25.6 30.72 35.84 45.773 62.566 95.13 81.715 151.245 12.698 37.274 22.733 85.299 25.395 121.958l0.41 4.301h-441.446l154.112-154.112z" />
<glyph unicode="&#xe90e;" glyph-name="checkbox" data-tags="checkbox" d="M868.454 959.078c-1.843-0.512-11.059-13.107-35.533-48.23-18.227-26.214-33.075-48.435-32.87-49.357 0.307-2.355-17.818-28.467-19.763-28.467-0.819 0-11.469-14.438-23.654-32.051s-39.322-56.832-60.518-87.245c-78.438-112.947-140.39-202.24-177.869-256.205-21.197-30.618-38.707-55.603-39.014-55.603s-48.64 33.69-107.52 74.854c-58.88 41.165-108.339 75.674-109.978 76.698l-2.97 1.946-53.146-75.981c-29.184-41.677-52.736-76.186-52.326-76.493 0.512-0.41 23.859-16.794 52.019-36.352 63.386-44.134 200.294-139.981 233.984-163.942 13.824-9.728 31.744-22.221 39.936-27.75s22.528-15.462 32.051-22.118c9.421-6.554 17.51-11.981 17.92-11.981 0.41 0.102 20.89 28.979 45.67 64.307 44.954 64.41 59.699 85.094 62.669 88.576 0.819 1.024 37.786 53.76 82.125 117.248 44.237 63.488 130.867 187.494 192.41 275.558 91.955 131.482 111.923 160.666 111.923 163.328-0.102 3.072-2.97 5.222-71.373 52.838-39.219 27.341-73.626 51.302-76.493 53.35-3.789 2.662-5.837 3.482-7.68 3.072zM0 396.8v-460.8h921.6l-0.205 279.859-0.307 279.757-50.893 0.307-50.995 0.205v-457.728h-716.8v716.8h583.68v102.4h-686.080v-460.8z" />
<glyph unicode="&#xe90f;" glyph-name="cog" data-tags="cog" d="M400.179 908.186l-0.307-51.814-20.48-6.861c-23.757-7.987-38.707-14.336-60.826-25.805l-15.872-8.192-74.854 74.854-158.72-158.72 37.478-37.581 37.376-37.683-9.83-19.456c-10.854-21.402-18.227-39.219-25.702-61.952l-4.813-14.848-49.766-0.307-49.766-0.205v-224.256h99.123l2.15-7.475c7.066-24.064 18.022-51.405 30.31-75.264l7.68-15.053-74.24-74.24 78.848-78.848c43.315-43.418 79.258-78.848 79.872-78.848 0.512 0 17.408 16.282 37.376 36.25l36.352 36.25 12.288-6.656c22.733-12.288 48.333-23.142 73.728-31.027l12.288-3.891 0.307-50.278 0.205-50.278h224.256v100.045l18.227 5.939c21.504 6.861 48.742 18.33 67.277 28.058l13.312 7.066 72.704-72.499 158.72 158.72-72.602 72.602 3.379 5.939c12.39 22.118 26.419 55.808 34.406 82.227l3.174 10.752 48.333 0.307 48.333 0.205v224.256h-97.075l-4.813 15.155c-6.861 21.402-16.589 45.056-27.238 65.741l-9.114 17.92 73.216 73.216-158.72 158.72-73.83-73.83-12.8 6.656c-22.938 11.981-60.314 27.034-80.486 32.358l-4.403 1.126v103.322h-224.256l-0.205-51.814zM544.256 635.085c20.582-3.891 37.376-9.421 53.862-17.613 84.89-42.598 125.85-140.8 96.051-230.4-21.811-65.536-75.571-112.845-144.794-127.693-10.138-2.15-13.824-2.355-36.864-2.355-28.16 0.102-35.635 1.126-56.73 7.885-67.174 21.504-117.248 78.336-130.253 147.763-3.072 16.282-3.789 44.339-1.536 59.904 8.499 58.163 41.677 107.827 92.467 138.547 18.944 11.366 44.646 20.582 68.403 24.269 14.848 2.355 45.978 2.15 59.392-0.307z" />
<glyph unicode="&#xe910;" glyph-name="cube" data-tags="cube" d="M388.608 926.208c-68.71-18.534-173.67-46.694-233.267-62.669-69.837-18.637-107.725-29.184-106.496-29.696 1.024-0.41 78.746-21.504 172.851-46.797s198.554-53.453 232.243-62.566l61.235-16.486 234.701 62.157c129.024 34.202 235.315 62.464 236.032 62.771 0.717 0.41-36.147 10.752-81.92 23.040-293.683 78.643-385.536 103.219-387.891 103.526-1.434 0.205-58.778-14.746-127.488-33.28zM0 457.83v-342.426l4.403-1.536c2.355-0.819 59.085-21.299 126.157-45.568 215.142-77.722 360.755-130.253 361.37-130.253 0.307 0 0.614 164.045 0.614 364.442v364.442l-3.277 1.126c-2.97 0.922-146.739 39.731-402.739 108.646-46.182 12.39-84.582 22.733-85.197 23.040-1.024 0.307-1.331-68.506-1.331-341.914zM858.112 752.026c-178.995-47.411-311.91-82.637-317.133-84.070l-3.379-0.922v-364.442c0-210.227 0.41-364.544 0.922-364.544s57.549 20.48 126.669 45.466c69.222 24.986 177.971 64.205 241.562 87.142 63.693 22.938 116.019 41.984 116.531 42.394 0.41 0.41 0.614 154.214 0.512 341.709l-0.307 340.992-165.376-43.725z" />
<glyph unicode="&#xe911;" glyph-name="dolly" data-tags="dolly" d="M236.032 953.446c-11.776-3.584-69.427-20.685-128-37.99s-106.803-31.744-107.213-32.154c-0.307-0.307 1.638-8.192 4.403-17.51s5.53-18.637 6.144-20.685c0.512-2.253 1.638-3.891 2.458-3.891s49.254 14.131 107.622 31.334c58.368 17.203 106.291 31.027 106.496 30.822 0.307-0.205 14.029-46.899 30.515-103.731 157.594-540.877 185.958-638.771 185.242-639.386-0.41-0.41-3.584-2.765-6.963-5.325-25.498-19.354-42.906-50.586-46.592-83.354-1.126-10.752 0-29.696 2.56-40.653 10.65-45.978 45.67-80.896 92.262-91.955 8.602-2.048 12.698-2.458 27.034-2.458 14.848 0.102 18.227 0.41 27.955 2.867 19.456 4.813 35.43 13.005 50.995 25.907 25.6 21.299 41.984 54.886 43.11 87.962l0.307 9.216 73.216 20.070c40.243 11.059 127.386 35.021 193.536 53.146s120.832 33.28 121.446 33.69c0.819 0.41-0.512 6.963-4.403 21.094-3.072 11.264-5.939 20.787-6.349 21.299-0.614 0.614-30.72-7.475-186.982-50.381-24.781-6.861-79.974-22.016-122.675-33.69l-77.619-21.402-4.71 9.216c-16.384 31.744-47.206 54.989-83.251 62.771-6.861 1.536-12.39 1.843-25.6 1.638-9.318-0.102-18.739-0.307-20.89-0.512l-3.994-0.205-113.766 390.451c-62.566 214.63-113.971 390.349-114.278 390.246-0.307 0-10.138-2.97-22.016-6.451zM532.787 131.482c24.474-7.27 43.315-25.395 51.507-49.562 3.994-11.776 4.608-29.286 1.536-41.37-6.861-27.136-27.034-47.923-53.862-55.603-9.626-2.662-28.16-3.174-37.376-0.922-25.19 6.144-46.694 26.112-55.091 50.995-2.458 7.168-2.662 9.523-2.662 23.347 0 13.926 0.205 16.077 2.765 23.552 6.861 20.48 21.606 36.762 41.882 45.978 6.554 3.072 11.571 4.506 21.299 6.144 5.837 1.024 22.835-0.41 30.003-2.56zM504.013 98.714c-12.493-2.458-22.733-10.445-28.57-22.221-3.686-7.475-3.891-8.192-3.891-18.022 0-9.523 0.307-10.957 3.277-17.203 6.042-12.698 16.896-20.89 31.232-23.45 16.896-3.072 35.328 6.963 43.213 23.552 2.867 6.144 3.174 7.68 3.174 16.998s-0.307 10.854-3.174 16.896c-5.837 12.186-14.95 19.763-27.546 23.040-6.554 1.638-10.854 1.741-17.715 0.41zM523.469 78.643c16.486-8.909 15.667-32.666-1.331-41.37-5.222-2.662-15.053-2.662-20.173 0-20.275 10.342-16.896 38.605 5.427 44.237 4.506 1.126 10.65 0 16.077-2.867zM779.264 629.146c-28.467-8.294-60.109-17.613-70.451-20.582-18.33-5.325-18.637-5.427-18.125-7.987 0.307-1.434 15.462-54.17 33.69-117.248s33.075-114.893 32.87-115.098c-0.819-0.717-95.232-27.75-96.154-27.443-0.512 0.205-16.077 52.531-34.509 116.326s-33.69 116.224-34.099 116.531c-0.307 0.307-17.51-4.403-38.195-10.445-93.286-27.136-118.682-34.714-119.398-35.328-0.512-0.41 16.282-59.29 37.171-130.662 20.89-71.475 40.55-138.65 43.725-149.402 3.072-10.65 6.042-19.866 6.451-20.275 0.41-0.512 4.403-1.331 8.806-1.843 23.142-2.867 47.923-12.8 68.403-27.238 11.571-8.294 27.648-24.576 34.918-35.635 3.379-5.018 6.144-9.318 6.246-9.523s30.72 8.602 68.096 19.558c37.376 10.957 107.008 31.437 154.726 45.363s87.245 25.6 87.757 26.010c0.614 0.307-18.125 66.253-47.104 164.864-26.419 90.419-52.736 180.326-58.47 199.987-9.421 32.154-10.65 35.533-12.493 35.43-1.229 0-25.395-6.963-53.862-15.36z" />
<glyph unicode="&#xe912;" glyph-name="download" data-tags="download" d="M426.701 959.283c-0.41-0.307-0.717-89.088-0.717-197.12v-196.403h-94.822c-60.518 0-94.618-0.307-94.413-1.024 0.717-2.253 274.739-379.904 275.456-379.699 0.41 0.205 6.451 8.192 13.414 17.715 139.469 192.614 261.837 361.984 261.837 362.394 0 0.307-42.803 0.614-95.232 0.614h-95.232v394.24h-84.787c-46.694 0-85.197-0.307-85.504-0.717zM0 21.504v-85.504h1022.976v171.008h-1022.976v-85.504z" />
<glyph unicode="&#xe913;" glyph-name="edit" data-tags="edit" d="M857.498 946.074c-5.018-7.168-20.070-28.774-33.382-47.923-13.414-19.251-24.269-35.328-24.371-35.942 0-0.512 13.005-10.035 28.877-20.992s50.995-35.328 77.926-54.067c27.034-18.739 49.459-33.69 49.869-33.28s10.24 14.438 21.709 31.027c11.469 16.589 26.214 37.786 32.666 47.104s12.083 17.408 12.493 18.125c0.512 0.819-4.301 4.71-13.824 11.366-105.779 73.421-139.776 96.87-141.21 97.178-1.229 0.41-4.198-3.072-10.752-12.595zM0 396.8v-460.8h921.6l-0.205 279.859-0.307 279.757-50.893 0.307-50.995 0.205v-457.728h-716.8v716.8h583.68v102.4h-686.080v-460.8zM758.067 803.021c-11.366-16.384-38.093-54.989-59.392-85.709-63.488-91.341-141.005-203.059-188.723-271.872l-44.749-64.512-7.987-25.6c-4.301-14.029-11.981-38.912-17.101-55.296-5.018-16.282-15.155-49.050-22.528-72.704-13.517-43.93-19.456-63.078-35.123-113.664-11.674-37.376-10.854-34.509-9.421-33.587 0.717 0.41 49.664 37.99 108.749 83.661 59.187 45.568 114.79 88.576 123.699 95.334l16.179 12.493 37.99 54.682c35.635 51.2 93.184 134.144 151.347 218.010 13.926 19.968 42.701 61.44 64 92.16s43.725 62.976 49.869 71.782c6.042 8.806 11.059 16.179 11.059 16.486s-2.662 2.355-5.837 4.608c-3.277 2.253-38.298 26.522-77.722 53.862-39.526 27.443-72.294 49.869-72.704 49.869-0.512 0-10.24-13.517-21.606-30.003zM507.904 343.962c10.138-7.066 18.432-13.21 18.432-13.619 0-0.512-3.072-11.059-6.758-23.654-3.686-12.493-6.451-22.938-6.144-23.245 0.205-0.205 8.909 5.837 19.149 13.517 10.342 7.782 19.354 14.234 19.968 14.541 1.229 0.41 36.454-23.245 37.786-25.293 0.512-0.922-108.749-83.251-109.875-82.739-1.741 0.717-29.901 20.48-30.413 21.197-0.205 0.512 2.765 11.878 6.758 25.293 3.994 13.517 11.059 37.888 15.872 54.17 16.794 57.139 15.462 52.736 16.282 52.736 0.307 0 8.806-5.837 18.944-12.902z" />
<glyph unicode="&#xe914;" glyph-name="facebook" data-tags="facebook" d="M0 448v-512h1024v1024h-1024v-512zM640 819.712c32.154-2.15 59.904-6.758 92.672-15.258 14.336-3.789 45.67-13.107 46.49-13.926 0.102-0.205-10.342-32.358-23.347-71.475l-23.757-71.168-5.325 1.434c-31.539 8.397-74.24 12.083-89.907 7.782-23.552-6.554-32.666-24.781-32.666-65.638v-15.462h136.192v-164.864h-136.192v-474.112h-221.184v474.112h-83.968v108.339l37.683 22.835c20.685 12.595 40.653 24.781 44.544 27.238l6.861 4.403v17.715c0 40.96 5.53 79.36 15.872 110.797 17.818 54.272 50.176 87.040 103.424 104.755 17.306 5.734 35.738 9.318 64 12.39 11.059 1.229 51.2 1.229 68.608 0.102z" />
<glyph unicode="&#xe915;" glyph-name="file" data-tags="file" d="M137.216 448v-512h749.568v810.496l-213.504 213.504h-536.064v-512zM762.88 835.584l113.152-113.152h-227.84v113.152c0 62.259 0.307 113.152 0.819 113.152 0.41 0 51.61-50.893 113.869-113.152zM793.6 419.328v-22.528h-563.2v45.056h563.2v-22.528zM793.6 330.24v-22.528h-563.2v21.811c0 12.083 0.307 22.221 0.717 22.528 0.307 0.41 127.078 0.717 281.6 0.717h280.883v-22.528zM793.6 240.128v-22.528h-563.2v45.056h563.2v-22.528zM793.6 150.528v-23.040l-562.688 0.512-0.307 21.504c-0.102 11.776 0 22.016 0.205 22.733 0.41 1.126 54.682 1.331 281.702 1.331h281.088v-23.040zM793.6 60.928v-22.528h-563.2v45.056h563.2v-22.528z" />
<glyph unicode="&#xe916;" glyph-name="fuel" data-tags="fuel" d="M386.048 851.251l-54.784-108.851-13.619-2.662c-7.475-1.434-13.722-2.355-13.926-2.048s-1.229 4.608-2.15 9.626c-1.024 4.915-2.355 8.909-2.97 8.909-0.614-0.102-10.138-2.048-21.094-4.506-10.957-2.355-70.861-15.36-133.12-28.774s-113.459-24.678-113.869-24.986c-0.41-0.307 0-3.994 0.922-8.090 0.819-4.198 1.331-7.68 1.126-7.782-0.102-0.205-6.758-1.536-14.643-3.072s-15.155-2.97-16.077-3.277c-1.741-0.512-1.843-19.046-1.843-370.176v-369.562h1022.976v1024h-582.144l-54.784-108.749zM950.272 819.712v-76.8h-471.040v153.6h471.040v-76.8zM921.6 320v-281.6h-819.2v563.2h819.2v-281.6zM145.408 320v-236.544h735.232v473.088h-735.232v-236.544zM263.168 882.688c-3.072-0.717-62.566-13.619-132.096-28.672s-126.669-27.546-126.874-27.75c-0.41-0.41 22.426-106.189 23.040-106.803 0.205-0.307 51.917 10.65 114.893 24.269 62.874 13.619 123.494 26.726 134.656 29.184 16.179 3.379 20.173 4.608 19.866 5.837-0.205 0.819-5.427 24.883-11.571 53.453-11.162 52.019-11.162 52.019-13.722 51.917-1.434-0.102-5.12-0.717-8.192-1.434z" />
<glyph unicode="&#xe917;" glyph-name="gearbox" data-tags="gearbox" d="M0 864.256v-95.744h40.96v-641.024h-40.96v-191.488h198.656v191.488h-48.128v266.24h307.2v-266.24h-40.96v-191.488h191.488v191.488h-41.984v266.24h307.2l0.205-133.12 0.307-133.12h-41.472v-191.488h191.488v191.488h-40.96v374.784h-416.768v266.24h41.984v191.488h-191.488v-191.488h40.96v-266.24h-307.2v266.24h40.96v191.488h-191.488v-95.744z" />
<glyph unicode="&#xe918;" glyph-name="glasses" data-tags="glasses" d="M124.826 951.91c-45.466-37.99-76.186-93.696-82.842-150.118-0.512-5.018-10.24-134.554-21.606-287.744-19.661-265.728-20.48-279.347-19.866-296.448 0.41-9.83 0.614-21.402 0.41-25.6-0.922-18.637-0.205-47.002 1.536-58.368 10.957-73.83 55.706-136.806 121.549-171.418 30.106-15.77 64.102-24.576 99.738-25.907 90.214-3.277 176.435 49.254 215.757 131.379 6.963 14.643 13.926 35.021 17.613 51.405 2.253 10.138 3.072 12.39 6.861 17.203 14.234 18.534 40.141 26.931 63.795 20.89 10.138-2.56 18.432-6.963 26.214-14.029 7.987-7.27 10.65-12.083 12.8-23.347 7.168-37.683 26.317-75.674 53.658-106.701 51.302-58.061 131.686-86.63 207.974-74.035 39.424 6.451 72.806 20.787 104.448 44.646 59.085 44.544 94.413 119.296 90.624 191.386-1.024 19.149-1.024 22.835-0.102 42.496 0.717 14.848-0.512 32.666-19.251 286.72-11.059 148.992-20.48 276.582-21.094 283.648-4.096 48.128-18.944 87.347-47.411 125.235-10.138 13.414-27.546 31.642-39.219 40.96l-7.27 5.837h-45.363l11.469-11.571c31.437-31.334 50.893-69.018 57.651-111.309 1.229-7.68 13.517-171.008 36.966-491.93l0.717-9.114-7.578 6.349c-33.178 27.648-70.144 45.056-111.514 52.326-18.33 3.277-50.176 3.994-68.198 1.536-53.453-7.168-98.611-29.798-136.294-68.198-27.648-28.16-45.67-60.006-58.266-103.117-0.205-0.922-2.048-0.614-6.963 1.229-3.686 1.434-11.571 3.789-17.715 5.427-10.342 2.662-12.39 2.867-31.027 2.867-17.92-0.102-21.197-0.41-31.334-2.765-6.246-1.434-14.746-3.994-18.944-5.734l-7.475-2.97-3.482 11.366c-24.166 79.872-91.853 141.722-173.773 158.72-68.608 14.234-142.438-4.198-195.072-48.538-4.608-3.994-8.704-7.168-9.011-7.168-0.717 0-1.536-11.878 18.227 256.512 9.626 129.536 17.92 239.002 18.534 243.2 1.638 11.264 6.451 29.184 10.752 40.038 11.264 28.57 30.003 56.218 51.61 75.981l7.578 6.861h-46.182l-9.626-8.090zM260.608 343.040c35.328-6.144 66.15-21.504 91.955-45.67 28.058-26.214 46.899-60.621 54.17-98.714 3.277-17.613 3.277-47.002-0.102-64-11.264-56.832-47.309-103.731-99.021-128.512-50.176-24.064-108.544-23.142-158.31 2.56-35.021 18.022-65.638 50.483-81.306 85.914-30.003 68.403-15.258 146.739 37.376 198.758 30.31 29.901 67.379 47.206 110.182 51.61 8.192 0.819 36.045-0.307 45.056-1.946zM811.008 344.576c53.555-5.53 101.683-35.021 131.379-80.384 26.010-39.936 35.021-89.293 24.678-135.68-8.806-39.424-30.925-74.547-63.181-100.659-11.469-9.318-17.51-13.21-31.232-20.070-28.058-14.234-61.133-20.89-91.546-18.637-45.568 3.482-83.251 20.89-115.507 53.35-34.509 34.816-52.838 82.33-50.893 132.096 2.048 52.122 26.112 99.021 67.584 132.198 36.045 28.877 82.637 42.496 128.717 37.786z" />
<glyph unicode="&#xe919;" glyph-name="grid" data-tags="grid" d="M0 721.92v-238.080l475.648 0.512 0.307 237.875 0.205 237.773h-476.16v-238.080zM547.84 721.92v-238.080h476.16v476.16h-476.16v-238.080zM0 173.875v-237.875h476.16v475.136l-476.16 0.512v-237.773zM785.715 411.443l-237.875-0.307v-475.136h476.16v238.080c0 130.97-0.102 237.978-0.205 237.875-0.205-0.205-107.315-0.41-238.080-0.512z" />
<glyph unicode="&#xe91a;" glyph-name="grid-large" data-tags="grid-large" d="M0 814.387v-145.715l290.816 0.512v290.816h-290.816v-145.613zM363.52 814.592v-145.408h296.96v290.816h-296.96v-145.408zM732.16 814.592v-145.408l291.84-0.512v291.328h-291.84v-145.408zM0 448v-148.48h290.816v296.96h-290.816v-148.48zM363.52 448v-148.48h296.96v296.96h-296.96v-148.48zM732.672 595.251c-0.307-0.717-0.41-67.482-0.307-148.275l0.307-146.944 291.328-0.512v296.96h-145.408c-115.405 0-145.613-0.307-145.92-1.229zM0 81.715v-145.715h290.816v290.816l-290.816 0.512v-145.613zM877.875 227.123l-145.715-0.307v-290.816h291.84v145.92c0 80.282-0.102 145.818-0.205 145.715-0.205-0.205-65.843-0.41-145.92-0.512zM363.52 81.408v-145.408h296.96v290.816h-296.96v-145.408z" />
<glyph unicode="&#xe91b;" glyph-name="help" data-tags="help" d="M369.664 958.976c-46.182-2.253-89.19-13.414-129.536-33.587-37.683-18.739-69.837-43.213-97.28-73.83-44.851-50.176-71.373-107.827-80.998-176.333-2.355-15.974-2.662-62.464-0.614-78.746 2.867-22.938 9.728-52.326 16.998-72.294l2.56-6.963-40.243-69.734-40.243-69.632 184.218-0.512 10.854-7.885c45.056-32.87 102.502-54.477 158.413-59.699 16.282-1.434 49.971-1.229 66.048 0.512 86.426 9.318 164.454 52.122 219.853 120.832 16.282 20.173 35.123 52.019 45.773 77.414 12.902 30.925 21.402 66.56 24.166 101.171 6.451 83.558-20.685 167.936-74.854 232.55-66.048 78.848-163.43 121.651-265.114 116.736zM409.088 867.84c40.96-2.765 70.861-12.288 95.437-30.31 23.962-17.613 38.093-40.346 42.803-68.915 2.355-13.824 1.638-40.243-1.434-53.35-5.12-22.528-15.36-41.062-32.256-59.085-10.752-11.469-22.835-20.992-48.23-38.195-43.315-29.286-47.616-34.714-47.616-60.109v-11.571h-102.605l0.512 24.371c0.512 24.678 1.331 30.925 5.632 43.213 7.885 22.733 23.347 39.731 54.477 60.006 38.195 24.781 50.278 39.424 50.381 61.133 0 5.837-0.512 8.602-2.253 11.981-7.373 14.438-27.034 20.992-55.398 18.432-28.262-2.56-56.115-11.059-90.726-27.648l-14.643-6.963-18.022 35.43c-9.933 19.558-20.378 39.834-23.142 45.056-2.867 5.222-4.915 9.728-4.813 9.933 1.229 1.126 25.805 13.517 35.738 17.92 38.605 17.203 81.408 27.341 122.368 28.979 15.974 0.717 19.046 0.614 33.792-0.307zM400.384 489.37c15.974-5.632 26.829-14.848 33.178-28.467 5.12-10.752 6.246-16.691 6.144-32.358 0-12.288-0.307-14.746-2.867-22.016-1.536-4.506-4.198-10.342-5.939-13.005-7.168-11.366-21.914-21.299-36.659-24.883-15.872-3.789-38.707-2.97-53.453 2.048-20.685 6.963-34.304 22.528-38.4 43.622-3.072 16.691-0.307 38.093 6.656 50.074 5.632 9.83 15.872 18.637 26.726 23.040 11.162 4.506 18.637 5.632 37.99 5.325 16.896-0.307 18.432-0.512 26.624-3.379zM726.835 457.933c-9.318-18.125-22.016-38.502-34.202-54.682-58.163-76.8-142.029-129.331-235.418-147.251-7.885-1.536-14.541-2.97-14.746-3.174-1.331-1.229-3.174-19.968-3.789-37.786-1.331-38.605 4.506-72.294 18.739-108.032 21.197-53.248 60.826-100.045 109.773-129.638 21.811-13.107 41.37-21.709 64.614-28.365 71.27-20.582 145.613-11.469 210.227 25.805l8.909 5.222h86.118c81.51 0 86.118 0.102 85.709 1.843-0.307 0.922-15.77 28.262-34.509 60.621-32.051 55.398-33.997 59.085-32.973 61.952 0.512 1.741 2.867 8.499 5.222 15.155 4.915 14.234 9.523 32.768 11.776 47.821 2.253 14.643 3.174 49.766 1.638 65.126-9.318 92.467-64.819 172.954-147.968 214.323-18.022 9.011-34.918 15.258-53.965 19.968-11.878 2.97-32.666 6.758-36.454 6.758-0.512 0-4.403-7.066-8.704-15.667zM723.661 342.016c14.029-4.198 20.992-16.794 18.739-33.69-2.253-16.077-13.722-23.654-35.84-23.654-17.613 0-27.238 4.608-32.768 15.462-3.174 6.451-3.584 19.866-0.717 27.238 2.048 5.325 8.192 11.469 13.824 13.824 8.192 3.379 26.726 3.789 36.762 0.819zM740.352 167.424v-98.304h-67.584v196.608h67.584v-98.304z" />
<glyph unicode="&#xe91c;" glyph-name="home" data-tags="home" d="M388.506 871.834c-66.97-48.538-165.786-120.115-219.546-159.13s-113.664-82.33-133.12-96.461l-35.328-25.6-0.307-90.726-0.205-90.829h2.15c1.229 0 57.958 40.141 130.765 92.467 127.181 91.443 150.938 108.442 300.134 215.552 41.882 30.106 76.8 54.886 77.517 55.194 0.614 0.205 62.464-43.52 137.216-97.28 283.238-203.264 348.365-250.061 359.219-257.843 7.68-5.632 12.083-8.090 14.029-8.090h2.97v91.955l-0.102 91.853-146.842 105.779-0.307 130.662-0.205 130.662h-159.744l-0.205-72.704-0.307-72.704-96.256 69.427c-52.941 38.093-98.304 70.861-100.762 72.704-2.458 1.741-5.53 3.277-6.758 3.277-1.434 0-50.074-34.611-124.006-88.166zM463.77 664.269c-25.702-18.432-117.555-84.173-204.083-146.022l-157.286-112.64v-469.606h504.832l0.205 144.179 0.307 144.077h218.112l0.307-144.077 0.205-144.179h94.208v469.606l-68.813 49.357c-279.552 200.192-339.354 242.893-340.275 242.79-0.512 0-22.016-15.053-47.718-33.485zM415.744 259.584v-72.704l-216.576 0.512-0.307 72.499-0.205 72.397h217.088v-72.704z" />
<glyph unicode="&#xe91d;" glyph-name="info" data-tags="info" d="M478.208 957.44c-16.896-3.482-29.286-7.782-44.544-15.36-17.51-8.704-30.208-17.92-44.544-32.256-27.136-27.136-42.701-57.344-49.357-95.744-2.765-16.179-2.15-46.49 1.229-62.362 6.246-29.184 19.149-55.706 37.99-77.926 3.789-4.506 35.328-36.557 69.939-71.168l63.078-62.976 63.078 62.976c34.611 34.611 66.15 66.662 69.939 71.168 19.149 22.528 32.154 49.766 38.195 79.77 2.048 9.626 2.355 14.643 2.355 32.87 0 18.432-0.307 23.142-2.355 33.178-14.234 70.451-67.379 123.597-138.035 137.83-10.957 2.253-14.95 2.56-33.792 2.458-18.432 0-23.040-0.41-33.178-2.458zM377.856 448v-51.2h31.744v-358.4h-31.744v-102.4h268.288v102.4h-31.744v358.4h31.744v102.4h-268.288v-51.2z" />
<glyph unicode="&#xe91e;" glyph-name="instagram" data-tags="instagram" d="M0 448v-512h1024v1024h-1024v-512zM939.008 770.048v-101.888h-212.992v203.776h212.992v-101.888zM273.101 570.675c-24.781-32.051-43.93-69.734-54.579-107.725-21.299-75.571-11.571-160.768 26.214-229.376 24.064-43.622 62.157-83.968 104.653-110.797 13.312-8.397 41.165-22.323 54.579-27.238 32.973-12.186 62.874-17.92 98.304-18.944 41.882-1.126 77.517 4.608 116.019 18.739 15.155 5.53 47.411 21.914 60.826 30.822 62.157 41.472 106.496 101.99 126.362 172.646 16.691 59.494 14.336 126.259-6.656 184.73-8.090 22.63-18.842 43.725-33.178 65.331-5.325 7.885-8.806 12.698-20.48 27.75l-1.946 2.458h230.605v-592.896h-922.624v592.896h228.454l-6.554-8.397zM623.411 575.795c16.077-8.909 37.478-25.702 51.098-40.141 33.792-35.635 54.17-78.95 60.826-128.614 1.434-11.162 1.434-40.858-0.102-52.736-5.12-41.472-21.606-80.589-47.923-113.971-8.294-10.547-29.389-31.13-39.936-38.912-34.099-25.293-68.71-38.912-112.128-44.339-12.698-1.536-45.67-0.717-58.573 1.536-62.771 10.752-115.917 44.749-151.245 96.973-36.864 54.272-47.514 122.573-29.389 187.392 15.258 54.477 52.941 102.707 103.322 132.198l6.656 3.891h211.456l5.939-3.277z" />
<glyph unicode="&#xe91f;" glyph-name="lamp" data-tags="lamp" d="M477.184 954.778c-25.088-1.946-57.958-8.090-84.992-15.974-64.717-18.637-125.133-53.965-175.002-102.195-71.168-68.915-114.586-156.877-126.669-257.024-2.253-18.534-2.97-55.91-1.536-75.776 6.758-93.082 41.37-177.664 101.274-247.808 4.813-5.632 34.816-36.352 66.662-68.301l57.856-58.163h394.445l56.832 57.139c66.765 66.97 78.029 79.667 98.406 110.080 37.683 56.32 60.826 119.603 69.12 189.645 2.15 18.739 2.458 68.403 0.512 86.528-12.493 113.459-63.283 210.33-148.070 282.624-67.482 57.446-151.552 92.16-240.64 99.328-15.053 1.126-52.326 1.126-68.198-0.102zM316.928 84.173c-0.307-0.717-0.41-12.595-0.307-26.317l0.307-25.088 390.656-0.512v53.248h-195.072c-156.672 0-195.277-0.205-195.584-1.331zM365.568-37.888v-26.112h292.864v52.224h-292.864v-26.112z" />
<glyph unicode="&#xe920;" glyph-name="list" data-tags="list" d="M0 819.712v-140.288l280.064 0.512 0.307 140.083 0.205 139.981h-280.576v-140.288zM319.488 820.224v-51.712h704.512l-0.205 51.507-0.307 51.405-704 0.512v-51.712zM0 448v-140.288l280.064 0.512 0.307 140.083 0.205 139.981h-280.576v-140.288zM319.488 448v-51.2h704.512v102.4h-704.512v-51.2zM0 78.336v-140.288h280.576v280.576h-280.576v-140.288zM319.488 77.824v-51.712l704 0.512 0.307 51.507 0.205 51.405h-704.512v-51.712z" />
<glyph unicode="&#xe921;" glyph-name="loop" data-tags="loop" d="M629.76 959.386c-53.453-3.277-112.333-20.787-159.334-47.514-30.925-17.613-55.194-36.147-81.306-62.362-31.744-31.744-54.886-64.307-73.318-103.014-24.883-52.326-38.195-116.019-35.84-170.496 3.072-69.939 21.504-130.867 56.32-186.573 1.024-1.638-19.456-22.426-167.731-170.701l-168.858-168.858 114.483-113.766 336.896 336.691 10.752-6.656c34.611-21.402 76.8-37.478 121.344-46.387 36.045-7.27 85.914-8.294 125.44-2.56 74.957 10.854 148.070 47.206 204.186 101.786 58.266 56.627 94.208 125.338 108.749 207.872 1.741 9.523 1.946 16.589 1.946 59.904 0 46.797-0.102 49.766-2.355 61.952-17.408 94.925-65.843 175.411-140.8 233.882-51.098 39.731-113.254 65.434-180.429 74.445-15.053 1.946-53.965 3.277-70.144 2.355zM680.96 851.046c45.158-5.12 87.757-21.402 125.44-48.026 17.613-12.493 42.086-36.25 55.501-53.965 27.136-35.942 45.261-78.746 52.019-122.88 2.355-15.258 3.072-44.749 1.638-61.44-2.355-26.624-9.728-56.115-20.275-80.794-20.685-48.845-57.958-92.262-103.424-120.627-92.365-57.344-209.306-52.736-297.267 11.776-56.115 41.165-94.208 104.858-104.55 174.694-8.602 58.061 3.072 118.989 32.666 170.496 19.763 34.509 51.405 67.994 84.685 89.395 34.202 22.118 77.926 37.683 116.736 41.574 14.438 1.434 42.803 1.331 56.832-0.205z" />
<glyph unicode="&#xe922;" glyph-name="map-marker" data-tags="map-marker" d="M487.936 952.115c-19.661-1.536-31.232-2.765-41.882-4.506-65.024-10.547-122.368-33.894-177.664-72.397-32.358-22.528-67.072-56.115-91.75-88.781-48.845-64.922-77.107-138.035-84.48-219.136-1.536-16.998-1.229-56.115 0.614-75.366 7.475-79.155 37.888-156.365 85.709-217.498 16.691-21.402 30.72-35.738 178.278-183.501l154.624-154.829 149.504 149.197c82.33 82.022 153.907 153.805 159.13 159.437 54.784 58.573 91.546 131.584 106.086 210.432 5.427 29.491 6.246 40.038 6.144 76.8 0 29.286-0.307 36.762-2.253 51.507-6.554 49.869-19.456 92.467-40.858 135.27-12.902 25.805-23.962 43.827-40.55 65.741-32.154 42.701-69.325 76.698-116.531 106.394-13.312 8.397-52.122 27.75-66.458 33.075-42.701 16.077-81.92 24.781-124.928 27.853-13.619 0.922-42.906 1.126-52.736 0.307zM539.443 812.032c35.635-3.584 66.867-12.39 96.973-27.341 30.31-15.155 51.507-30.413 75.366-54.067 34.406-34.202 59.802-77.107 72.602-122.368 7.27-26.214 10.445-49.459 10.445-77.824 0-28.877-3.174-52.019-10.957-79.053-21.094-73.318-73.728-136.909-142.336-172.032-31.846-16.282-62.054-25.395-97.792-29.594-17.613-2.048-54.374-1.536-71.27 1.024-32.154 4.813-66.662 16.384-94.72 31.846-77.926 42.803-131.174 119.398-144.282 207.36-18.432 123.392 48.435 245.965 162.304 297.677 45.158 20.582 95.949 29.184 143.667 24.371zM496.128 656.794c-18.944-2.458-43.213-12.186-58.368-23.552-15.974-11.981-32.768-32.461-40.243-49.050-22.118-49.459-11.776-105.574 26.419-143.36 15.974-15.872 35.738-27.136 58.061-32.973 11.264-3.072 13.21-3.277 30.003-3.277 13.824 0 19.763 0.41 26.112 1.843 24.678 5.632 44.442 16.179 61.747 32.768 10.65 10.138 18.432 20.48 24.986 32.973 10.24 19.456 14.643 37.171 14.438 58.778-0.205 26.624-7.27 49.459-22.118 71.68-7.066 10.547-23.757 27.034-35.021 34.406-24.986 16.486-55.808 23.552-86.016 19.763z" />
<glyph unicode="&#xe923;" glyph-name="minus" data-tags="minus" d="M0 448v-98.304h1024v196.608h-1024v-98.304z" />
<glyph unicode="&#xe924;" glyph-name="paper-plane" data-tags="paper-plane" d="M2.355 954.573c97.69-221.491 185.651-420.352 186.47-421.274 0.614-0.717 29.901-7.885 65.126-16.077s110.592-25.6 167.424-38.81c56.934-13.21 109.056-25.293 116.019-26.931 6.861-1.536 12.493-3.174 12.493-3.482s-5.632-1.946-12.493-3.482c-6.963-1.638-59.085-13.722-116.019-26.931-56.832-13.21-132.198-30.618-167.424-38.81s-64.512-15.36-65.126-16.077c-0.614-0.717-43.213-96.563-94.618-213.197s-93.696-212.378-93.901-212.787c-0.307-0.41 229.683 114.278 511.078 254.976s511.59 256 511.59 256.307c0 0.307-230.195 115.61-511.488 256.205l-511.488 255.795 2.355-5.427z" />
<glyph unicode="&#xe925;" glyph-name="pen" data-tags="pen" d="M791.962 904.602l-55.194-55.194 177.152-177.152 54.989 54.989c30.31 30.31 55.091 55.501 55.091 56.115 0 0.512-39.834 40.55-88.371 88.781l-88.474 87.654-55.194-55.194zM448.512 561.152l-255.386-255.386-95.437-183.603c-52.429-100.966-95.232-183.706-95.13-183.91 0.205-0.205 82.944 42.598 183.91 94.925l183.706 95.334 511.693 511.693-88.269 87.962c-48.538 48.333-88.474 88.064-88.883 88.269-0.41 0.102-115.712-114.79-256.205-255.283zM239.923 248.422l21.299-21.299-14.95-30.003c-8.192-16.384-14.541-29.696-14.131-29.594 0.512 0.205 13.926 7.066 29.901 15.053l28.979 14.746 21.402-21.299c11.776-11.776 21.402-21.606 21.402-21.914s-36.352-18.739-80.896-40.96l-80.896-40.448-17.408 17.408c-9.523 9.523-17.408 17.818-17.408 18.432 0 1.331 80.179 161.28 80.896 161.28 0.307 0 10.138-9.626 21.811-21.402z" />
<glyph unicode="&#xe926;" glyph-name="persons" data-tags="persons" d="M218.112 958.874c-30.31-2.867-61.235-13.619-86.938-30.31-46.285-30.106-77.21-78.029-86.221-133.939-1.741-10.752-1.741-45.568 0-56.32 3.891-24.269 12.39-48.64 23.654-68.301 11.981-20.582 32.768-44.237 50.688-57.651 42.086-31.539 93.286-44.646 145.408-37.376 71.373 10.035 133.222 62.464 155.443 131.584 12.902 40.141 12.8 81.203-0.41 120.832-16.486 49.664-53.453 91.443-100.25 113.562-21.606 10.138-44.954 16.282-68.198 18.022-15.974 1.126-19.354 1.126-33.178-0.102zM769.536 958.976c-33.792-2.867-69.12-16.589-97.792-37.786-9.523-7.066-25.907-22.835-33.792-32.358-36.352-44.442-51.405-104.96-39.834-160.768 16.282-79.155 78.746-139.264 158.618-152.678 20.582-3.482 47.104-2.97 68.608 1.229 65.946 13.005 121.958 61.338 144.282 124.723 8.090 22.938 10.752 39.219 10.752 65.126 0 20.992-0.922 29.491-5.12 46.182-6.758 27.341-21.094 55.808-38.298 76.698-40.96 49.357-102.81 75.059-167.424 69.632zM489.472 659.968c-18.739-2.355-41.882-9.011-59.597-17.203-39.629-18.33-75.059-53.76-93.184-93.286-24.576-53.453-23.962-113.869 1.741-166.502 16.794-34.509 42.701-62.464 75.776-81.92 32.973-19.456 73.114-29.082 109.261-26.214 34.304 2.765 59.597 10.445 86.221 26.112 55.091 32.461 89.907 88.474 95.027 152.781 4.301 55.603-16.077 110.592-56.013 150.426-28.877 28.979-63.078 46.592-105.267 54.374-10.138 1.843-43.213 2.662-53.965 1.434zM79.36 609.587c-40.346-32.461-66.662-75.878-76.493-126.362-2.048-10.752-2.15-14.541-2.56-98.202-0.307-65.638-0.102-88.166 0.819-91.443 5.939-21.402 56.627-41.984 127.693-51.814 36.045-5.018 92.262-8.192 126.464-7.066l18.637 0.614 4.915 10.035c14.336 29.184 36.966 57.139 63.078 78.131l11.162 9.011-4.71 5.837c-13.107 15.974-27.341 42.598-34.406 64.102-15.258 45.978-13.722 96.973 4.198 142.336 4.096 10.445 13.107 28.16 17.92 35.021 1.741 2.56 2.765 4.506 2.253 4.301s-5.325-2.56-10.65-5.12c-52.019-25.19-109.773-27.955-163.942-8.090-21.811 8.090-47.002 23.040-64.614 38.298-4.915 4.301-9.318 7.782-9.728 7.782-0.512 0-5.018-3.379-10.035-7.373zM924.672 609.178c-16.794-14.95-42.803-30.31-64.41-38.298-11.162-4.096-28.774-8.704-41.574-10.957-15.155-2.56-46.899-2.355-64 0.512-21.299 3.584-40.55 9.728-58.573 18.739-5.53 2.765-10.24 5.018-10.547 5.018-0.205 0 1.331-2.867 3.584-6.246 2.253-3.482 6.656-11.469 9.728-17.715 20.275-40.96 26.522-87.347 17.818-132.506-5.939-30.618-22.426-66.458-41.062-89.395l-4.71-5.837 11.162-9.011c25.907-20.787 47.104-46.899 62.259-76.698l5.837-11.264 17.306-0.614c34.099-1.229 91.75 1.843 127.693 6.861 71.066 9.83 121.754 30.413 127.693 51.814 0.922 3.277 1.126 25.805 0.922 90.931-0.41 83.866-0.41 86.835-2.662 98.304-8.090 42.598-27.75 79.667-58.573 110.592-9.216 9.216-26.419 23.552-28.16 23.45-0.512 0-4.915-3.482-9.728-7.68zM356.352 312.218c-4.813-3.789-13.824-11.981-20.070-18.227-31.13-31.232-51.098-70.042-58.368-113.562-1.638-9.114-1.843-20.992-2.15-95.642-0.307-57.754-0.102-86.426 0.614-89.19 3.174-11.776 20.070-23.859 47.718-34.202 26.419-9.83 76.493-19.149 123.904-23.040 29.901-2.458 97.894-2.458 128 0 36.659 3.072 73.83 9.011 102.4 16.589 38.912 10.138 65.126 25.6 69.222 40.653 0.717 2.765 0.922 31.437 0.614 89.19-0.41 94.31-0.307 93.184-7.373 118.784-6.451 23.757-17.92 46.899-33.894 68.403-9.011 12.186-28.877 32.358-40.55 41.267l-7.987 5.939-6.144-5.734c-40.346-37.274-95.744-56.832-152.269-53.76-47.411 2.56-94.106 22.221-128.102 53.658-3.379 3.072-6.246 5.632-6.554 5.632-0.205 0-4.301-3.072-9.011-6.758z" />
<glyph unicode="&#xe927;" glyph-name="phone" data-tags="phone" d="M311.296 649.216l-310.784-310.784 402.944-402.944 310.272 310.272c170.598 170.598 310.272 310.682 310.272 311.296s-90.419 91.443-201.011 202.035l-200.909 200.909-310.784-310.784zM914.432 521.216c0-0.614-100.762-101.786-224.051-225.075l-223.949-223.949-329.421 329.011 449.229 449.229 164.045-164.045c90.317-90.317 164.147-164.557 164.147-165.171zM802.304 737.792l43.93-44.032-15.565-15.667-15.565-15.565-88.576 88.576 15.36 15.36c8.397 8.397 15.565 15.36 15.872 15.36s20.378-19.866 44.544-44.032zM328.192 123.392l-22.016-22.016-140.8 140.8 44.032 44.032 140.8-140.8-22.016-22.016z" />
<glyph unicode="&#xe928;" glyph-name="piggy-bank" data-tags="piggy-bank" d="M230.4 958.362c-1.946-0.205-7.987-0.922-13.312-1.536-56.422-6.451-108.646-32.666-148.685-74.445-36.659-38.4-58.982-85.197-66.458-139.469-2.048-14.438-1.741-49.050 0.512-63.488 5.53-36.25 17.408-68.813 35.226-97.28 12.698-20.173 36.762-47.104 54.784-61.235 21.606-17.101 47.002-31.334 71.373-39.936 61.44-21.914 129.024-18.33 187.904 9.933 66.355 31.846 114.688 90.624 132.608 161.28 11.776 46.285 9.728 95.232-5.837 140.288-30.72 89.088-109.978 153.088-203.776 164.352-9.523 1.229-38.912 2.15-44.339 1.536zM273.613 867.635l0.307-17.51 8.704-2.253c32.358-8.192 55.398-27.546 65.229-54.579 2.253-6.042 5.427-22.426 5.427-27.546v-2.355h-63.181l-1.331 5.939c-4.813 21.709-22.835 32.256-52.224 30.618-13.005-0.717-21.504-3.789-27.648-9.933-8.704-8.602-9.523-20.787-2.15-29.798 6.451-7.782 19.149-12.595 56.832-21.504 44.749-10.445 66.662-20.275 81.51-36.557 12.698-13.824 18.125-30.618 17.101-53.35-0.614-15.462-2.253-22.221-8.397-34.406-12.083-24.166-37.274-41.062-71.168-47.616l-8.704-1.638-0.512-18.944-0.512-18.842-26.317-0.307-26.419-0.205v19.456c0 18.33-0.102 19.456-1.946 19.456-3.789 0-21.709 5.018-30.208 8.499-12.595 5.12-23.552 12.39-32.87 21.709-15.462 15.565-23.245 33.587-25.6 58.675l-0.614 7.373h63.59l0.41-2.253c2.355-12.083 3.277-15.36 5.632-19.661 5.939-11.162 18.125-19.558 32.666-22.63 9.216-1.946 28.058-1.946 37.786 0.102 24.474 5.018 36.045 21.811 27.238 39.424-5.632 10.957-16.998 16.384-54.886 26.112-31.539 8.090-45.466 12.493-57.958 18.432-22.938 10.752-37.274 26.317-42.701 46.49-2.458 9.318-2.56 30.822-0.102 39.936 8.294 31.13 34.304 53.146 72.909 61.747l6.144 1.434 0.307 16.998 0.205 17.101h53.248l0.205-17.613zM525.824 791.347c1.331-3.584 4.608-18.432 6.554-30.003 9.114-53.555 2.662-110.387-17.92-159.539-35.738-85.299-110.285-149.299-199.578-171.213-20.992-5.12-37.581-7.27-61.44-7.885-48.845-1.229-93.901 8.602-136.090 29.491-5.632 2.765-10.342 4.915-10.445 4.71-0.614-0.614-2.458-14.438-3.584-27.853-1.331-15.36-0.717-46.592 1.126-62.464 3.072-26.112 8.294-50.074 16.384-74.24 33.28-99.43 111.411-184.832 212.48-231.936l14.336-6.656 0.307-58.88 0.205-58.88h143.36v80.896l9.523-0.819c12.595-0.922 54.17-0.922 71.168 0.102l13.517 0.819v-80.998l142.848 0.512 0.307 59.392 0.205 59.392 13.824 6.554c68.403 32.358 129.741 85.606 169.165 146.842 14.848 23.040 29.696 52.838 37.683 75.776l2.867 7.885h71.373v156.672h-56.115l-0.614 4.915c-9.114 64.512-37.786 128.205-81.92 181.965-3.686 4.506-6.758 8.499-6.758 8.909s14.541 28.774 32.256 62.976c17.715 34.202 32.256 62.464 32.256 62.771 0 0.41-23.142-3.174-51.405-7.782-28.365-4.71-70.554-11.571-93.798-15.36l-42.189-6.861-14.643 6.963c-62.054 29.594-131.482 45.363-199.782 45.568-15.053 0-16.179-0.102-15.462-1.741zM823.706 528.896c14.541-4.915 24.576-16.691 27.341-32.154 4.915-26.317-19.354-50.995-45.773-46.694-27.648 4.506-43.008 33.894-30.618 58.47 9.114 18.022 30.413 26.829 49.050 20.378z" />
<glyph unicode="&#xe929;" glyph-name="pin" data-tags="pin" d="M621.773 923.853l-36.045-36.045 64-64-179.2-179.098-86.528-23.142c-47.616-12.8-86.733-23.45-87.040-23.654-0.41-0.512 363.622-364.954 364.646-364.954 0.307 0 10.854 38.605 23.45 85.811l22.938 85.709 179.814 180.224 63.488-63.488 72.704 72.704-366.080 366.080-36.147-36.147zM745.472 751.616l35.328-35.328-92.979-92.877-92.877-92.979-71.68 71.68 92.365 92.365c50.893 50.893 92.877 92.467 93.491 92.467s16.896-15.872 36.352-35.328zM317.747 396.083c-31.539-46.080-113.050-165.069-181.248-264.499-140.083-204.493-128.307-187.085-126.259-185.856 0.819 0.512 58.47 39.936 128 87.552 69.53 47.718 188.928 129.434 265.216 181.76 76.288 52.224 139.162 95.437 139.776 95.846 0.614 0.614-30.72 32.666-82.944 84.89-46.182 46.182-84.275 83.968-84.582 83.968s-26.419-37.683-57.958-83.661z" />
<glyph unicode="&#xe92a;" glyph-name="plus" data-tags="plus" d="M411.648 753.664v-206.336h-411.648l0.205-99.533 0.307-99.635 411.136-0.512v-411.648h199.68v411.648h412.672v199.68h-412.672v412.672h-199.68v-206.336z" />
<glyph unicode="&#xe92b;" glyph-name="print" data-tags="print" d="M137.216 794.624v-165.376h749.568v117.248l-213.504 213.504h-536.064v-165.376zM762.88 835.584l113.152-113.152h-227.84v113.152c0 62.259 0.307 113.152 0.819 113.152 0.41 0 51.61-50.893 113.869-113.152zM0 446.464v-222.72h90.112l0.205 64.307 0.307 64.205 843.264 0.512v-129.024h90.112v445.44h-90.112l-0.205-42.189-0.307-42.291h-842.752l-0.307 42.291-0.205 42.189h-90.112v-222.72zM969.011 538.726c9.83-2.97 19.763-13.005 23.142-23.45 2.048-6.144 1.638-16.794-0.922-23.45-3.072-8.294-10.445-16.077-18.637-19.763-5.325-2.458-7.782-2.97-14.643-2.97-10.957 0.102-18.227 2.867-25.293 9.933-7.68 7.68-10.445 14.438-10.547 25.293 0 7.475 0.41 9.626 2.97 15.155 3.686 7.885 11.674 15.565 19.354 18.534 6.451 2.458 17.715 2.765 24.576 0.717zM137.011 121.856l0.205-185.856h749.568l0.205 185.856 0.307 185.856h-750.592l0.307-185.856zM793.6 240.128v-22.528h-563.2v45.056h563.2v-22.528zM793.6 150.528v-23.040l-562.688 0.512-0.307 21.504c-0.102 11.776 0 22.016 0.205 22.733 0.41 1.126 54.682 1.331 281.702 1.331h281.088v-23.040zM793.6 60.928v-22.528h-563.2v45.056h563.2v-22.528z" />
<glyph unicode="&#xe92c;" glyph-name="question" data-tags="question" d="M493.568 955.29c-102.195-3.482-198.144-28.16-291.328-74.854-19.661-9.83-38.4-20.070-38.4-20.89 0-0.41 18.739-37.274 41.574-81.92 22.835-44.749 43.827-85.709 46.49-91.136l4.915-9.83 19.866 9.933c60.109 29.901 113.254 48.64 161.075 56.73 38.093 6.554 71.68 6.963 93.901 1.229 40.038-10.342 58.88-33.075 55.091-66.662-4.506-40.96-27.136-67.072-98.304-113.664-42.701-27.955-67.789-49.050-86.118-72.192-15.974-20.275-28.365-46.797-34.202-73.216-4.608-21.197-4.915-25.498-5.325-70.861l-0.512-44.339h207.053v20.787c0 28.877 1.946 39.014 10.342 53.248 10.342 17.613 31.642 34.918 90.931 74.342 44.237 29.389 59.699 41.37 83.968 65.126 46.694 45.568 70.144 91.341 78.541 153.088 2.253 16.384 2.56 58.573 0.614 72.704-3.789 26.726-9.933 47.923-19.558 68.096-13.517 28.262-29.696 49.254-53.76 69.837-56.013 48.026-133.325 72.602-233.062 74.342-13.21 0.205-28.467 0.307-33.792 0.102zM418.099 184.627c-40.243-40.448-49.254-49.971-54.067-57.344-13.517-20.992-19.968-42.803-19.968-67.482 0-33.69 13.107-64.41 37.478-87.962 19.149-18.534 38.298-28.262 65.434-33.382 10.957-2.048 32.358-1.536 44.339 1.024 59.494 12.8 100.762 65.126 98.202 124.518-0.819 18.842-4.301 33.178-11.674 48.947-7.782 16.486-12.39 21.914-62.566 72.192-26.317 26.317-48.026 47.821-48.333 47.821s-22.221-21.811-48.845-48.333z" />
<glyph unicode="&#xe92d;" glyph-name="recharge" data-tags="recharge" d="M0 448v-278.528h389.427l-14.746 7.475c-30.515 15.565-52.224 31.334-76.698 55.91-17.101 17.203-28.467 30.925-39.629 47.718-67.174 101.581-66.97 233.677 0.41 335.462 17.408 26.419 44.851 55.501 70.042 74.342 16.282 12.288 28.365 19.763 46.899 29.184l13.824 6.963h-389.53v-278.528zM647.168 720.077c56.422-28.672 100.659-70.963 130.867-125.133 39.117-70.042 48.538-156.877 25.19-233.574-15.462-51.098-38.81-90.010-77.21-128.512-24.474-24.576-46.182-40.346-76.698-55.91l-14.746-7.475h302.387v557.056h-302.49l12.698-6.451zM491.008 724.89c-68.608-6.963-123.494-31.744-172.339-77.722-22.733-21.402-45.978-54.17-59.085-83.251-27.034-59.699-32.666-123.699-16.486-186.778 7.885-30.925 21.504-60.518 40.346-87.859 10.547-15.36 16.998-23.040 31.334-37.478 23.45-23.552 44.646-38.707 73.83-53.146 19.661-9.728 31.949-14.438 50.176-19.456 54.682-14.95 115.814-12.39 169.062 7.168 14.541 5.325 43.11 19.661 55.706 27.955 15.974 10.445 30.72 22.528 45.67 37.478 14.234 14.336 20.685 22.016 31.334 37.478 44.646 64.922 59.904 144.794 42.189 221.184-11.571 50.074-37.888 97.382-74.035 133.12-43.622 43.213-95.539 69.427-156.262 78.848-12.8 1.946-51.098 3.482-61.44 2.458zM552.858 631.91c1.024-1.229-2.56-13.21-17.92-59.699-10.547-31.949-19.149-58.778-19.251-59.597-0.307-3.994 2.662-3.789 42.394 3.994 35.942 6.963 39.014 7.475 40.55 5.939s-3.994-11.571-71.782-129.536c-40.448-70.246-74.342-128.717-75.366-129.741-2.253-2.355-5.018-1.536-5.018 1.638 0 1.331 9.421 37.171 20.992 79.667s20.89 78.234 20.787 79.36c-0.512 3.174-4.096 2.97-32.973-1.946-14.643-2.458-27.136-4.301-27.853-3.994-0.717 0.205-1.434 1.024-1.741 1.638-0.205 0.717 6.349 45.875 14.541 100.454 11.264 74.342 15.36 99.43 16.486 100.045 0.819 0.512 16.077 2.765 33.792 5.018 17.715 2.355 37.99 5.018 45.056 6.042 16.384 2.458 15.872 2.458 17.306 0.717zM958.464 447.488v-164.352h65.536v328.704h-65.536v-164.352z" />
<glyph unicode="&#xe92e;" glyph-name="save" data-tags="save" d="M0 448v-512h231.424l0.205 197.427 0.307 197.325h560.128l0.307-197.427 0.205-197.325h231.424v1024h-1024v-512zM920.576 678.4v-179.2h-818.176v358.4h818.176v-179.2zM270.029 288.563c-0.41-0.307-0.717-79.872-0.717-176.64v-175.923h485.376l-0.205 176.435-0.307 176.333-241.766 0.307c-132.915 0.102-242.074-0.102-242.381-0.512zM384 154.624v-94.72h-77.824v189.44h77.824v-94.72z" />
<glyph unicode="&#xe92f;" glyph-name="share" data-tags="share" d="M199.168 959.386c-1.638-0.205-7.168-0.922-12.288-1.536-12.493-1.536-38.298-8.192-49.152-12.698-28.774-11.878-52.531-27.341-72.909-47.411-52.429-51.712-74.752-123.494-60.723-195.379 8.602-43.827 29.696-82.637 62.054-114.074 37.478-36.352 82.944-56.627 135.782-60.518 17.306-1.331 33.485-0.41 51.712 2.662l9.421 1.638 5.222-2.56c27.955-14.029 46.080-39.834 50.176-71.27 4.71-36.147-14.848-73.83-47.411-91.136l-8.192-4.403-12.39 1.946c-16.794 2.662-53.862 2.662-68.198 0.102-47.002-8.499-86.323-28.672-118.272-60.621-43.52-43.418-65.741-99.328-63.693-159.744 2.048-56.934 24.166-107.315 64.614-147.456 29.594-29.286 65.741-48.845 107.213-58.061 9.933-2.15 13.005-2.355 44.442-2.355 33.382 0 33.894 0 45.773 2.867 29.082 6.963 50.995 16.384 74.957 32.461 37.786 25.395 67.994 64.512 83.046 107.622 8.397 23.859 11.776 44.749 11.776 71.782 0 19.763-1.638 32.973-6.246 52.019-8.294 33.792-26.829 68.403-49.459 92.979l-5.939 6.349 6.246 6.758c11.366 12.186 22.426 27.443 30.208 41.882 2.15 3.994 5.222 8.192 6.861 9.523 4.096 3.277 11.264 13.722 14.95 21.811 6.963 15.155 18.125 28.467 31.539 37.683 8.909 6.144 15.77 9.318 28.058 13.107 7.68 2.355 10.65 2.662 23.654 2.765 12.698 0 16.179-0.307 23.552-2.355 26.624-7.475 47.002-24.576 59.904-50.381 3.072-6.042 7.68-13.517 10.138-16.691 2.56-3.072 6.758-9.83 9.318-15.053 25.907-51.61 71.066-91.238 124.416-109.261 54.886-18.637 115.917-14.336 167.117 11.776 61.338 31.232 105.267 90.931 116.019 158.003 2.458 15.36 2.15 56.73-0.512 71.168-8.806 47.821-29.901 87.347-64.307 120.525-15.565 14.95-32.358 26.726-53.248 37.171-30.31 15.155-60.621 22.118-96.256 22.221-58.982 0.102-112.435-22.733-154.317-65.843-17.92-18.432-32.154-39.117-41.882-60.621-2.458-5.53-4.71-10.342-5.018-10.547-0.307-0.307-2.458 0.41-4.813 1.638s-9.626 4.301-16.077 6.758c-52.634 20.582-110.899 18.534-161.587-5.734-4.506-2.15-8.192-3.891-8.294-3.789s-2.662 5.53-5.734 11.981c-7.373 15.155-17.613 30.72-29.491 44.442l-9.421 10.854 4.915 5.734c31.642 36.352 49.152 75.059 54.682 120.218 1.536 12.698 1.229 39.117-0.512 52.941-10.854 82.842-67.994 151.859-147.456 178.074-20.275 6.656-39.219 9.728-62.464 10.138-10.138 0.205-19.763 0.205-21.504-0.102zM236.442 838.656c22.733-4.71 45.261-19.661 59.085-39.117 5.939-8.294 11.981-21.299 14.848-32.051 2.048-7.373 2.355-11.162 2.355-24.576 0-14.234-0.307-16.794-2.867-25.088-10.342-34.304-35.533-59.085-69.325-68.301-12.493-3.379-35.533-3.379-48.026 0-24.064 6.554-43.93 20.89-57.344 41.165-24.474 37.376-20.685 85.606 9.523 118.272 15.565 16.896 35.533 27.546 58.675 31.232 7.68 1.126 23.757 0.41 33.075-1.536zM833.946 541.184c32.051-8.704 57.446-33.28 67.584-65.229 16.179-51.507-13.21-106.086-65.638-121.754-13.005-3.891-34.611-4.608-48.435-1.536-11.469 2.56-27.238 9.83-36.557 16.896-40.96 30.925-51.2 88.678-23.245 130.867 6.144 9.216 18.227 21.606 26.829 27.341 11.059 7.475 24.371 12.698 40.141 15.872 1.434 0.205 9.011 0.307 16.896 0.102 10.752-0.205 16.384-0.819 22.426-2.56zM240.128 245.248c27.341-6.963 50.278-25.702 62.976-51.507 7.885-15.974 9.626-23.654 9.626-42.701s-1.741-26.829-9.523-42.496c-16.282-32.666-46.899-52.634-83.558-54.477-18.432-0.819-37.581 4.096-54.477 14.234-8.704 5.12-23.142 19.354-29.798 29.389-10.854 16.179-15.77 32.666-15.872 52.838-0.205 26.931 9.83 51.098 29.082 69.734 14.848 14.336 32.358 23.347 52.838 27.034 7.885 1.434 29.389 0.307 38.707-2.048z" />
<glyph unicode="&#xe930;" glyph-name="shopping-bag" data-tags="shopping-bag" d="M258.048 801.792v-158.208h92.16v224.256h321.536v-224.256h92.16v88.883c0 48.947 0.307 120.115 0.717 158.208l0.614 69.325h-507.187v-158.208zM148.992 722.227c-0.307-1.331-32.563-177.459-71.68-391.475-39.219-214.016-71.475-390.349-71.782-391.885l-0.614-2.867h1019.085v9.421c0 8.192-9.83 62.669-70.144 390.246-38.605 209.51-70.554 382.464-70.963 384.512l-0.819 3.789-36.557 0.307-36.557 0.205v-28.877c0-15.974-0.307-44.544-0.717-63.59l-0.614-34.509-180.429 0.512-0.307 63.283-0.205 63.181h-231.424l-0.205-63.181-0.307-63.283-180.736-0.512-0.205 63.181-0.307 63.283-31.949 0.307-32.051 0.205-0.512-2.253z" />
<glyph unicode="&#xe931;" glyph-name="sign-in" data-tags="sign-in" d="M512 908.8v-51.2h409.6v-819.2h-409.6v-102.4h512v1024h-512v-51.2zM307.2 614.502v-115.302h-307.2v-102.4h307.2l0.205-115.098 0.307-114.995 104.448 57.549c193.126 106.394 371.61 204.595 388.403 213.811 9.114 5.018 16.589 9.421 16.589 9.933 0 0.41-7.475 4.915-16.589 9.933-9.216 5.018-76.39 41.984-149.299 82.125-72.909 40.243-178.176 98.202-233.984 128.922-55.808 30.618-103.322 56.934-105.677 58.266l-4.403 2.56v-115.302z" />
<glyph unicode="&#xe932;" glyph-name="sign-out" data-tags="sign-out" d="M0 448v-512h512v102.4h-409.6v819.2h409.6v102.4h-512v-512zM512 614.502v-115.302h-307.2v-102.4h307.2l0.205-115.098 0.307-115.2 8.704 4.915c4.813 2.765 65.638 36.25 135.168 74.547 325.734 179.302 365.568 201.318 365.568 202.035 0 0.41-53.76 30.413-119.501 66.56-65.843 36.25-162.406 89.395-214.835 118.272-52.326 28.877-111.309 61.338-131.072 72.192-19.661 10.854-37.786 20.787-40.141 22.221l-4.403 2.56v-115.302z" />
<glyph unicode="&#xe933;" glyph-name="snow-flake" data-tags="snow-flake" d="M402.432 896.512l0.102-62.976 42.906-47.309 43.008-47.309v-170.086h47.104v170.086l43.008 47.309 42.906 47.309 0.102 62.976v62.976l-4.403-4.915c-2.355-2.662-25.907-28.774-52.429-58.061l-48.128-53.146h-9.216l-48.128 53.146c-26.419 29.286-50.074 55.398-52.429 58.061l-4.403 4.915v-62.976zM228.659 867.328c0.41-5.632 2.15-41.472 3.891-79.667 2.458-52.326 2.97-69.734 2.15-70.554-0.922-0.922-20.685-0.307-80.282 2.56-43.418 2.048-79.155 3.584-79.258 3.482-0.205-0.205 19.558-20.173 43.93-44.442l44.237-44.134 46.080-2.253c25.395-1.126 54.374-2.56 64.41-3.072l18.33-0.819 111.309-111.309 15.36 15.36c8.397 8.397 15.36 15.77 15.36 16.384 0 0.512-24.986 26.010-55.501 56.525l-55.398 55.501-3.072 63.795-2.97 63.795-89.088 89.088 0.512-10.24zM750.899 832.717l-44.134-44.237-2.97-63.795-3.072-63.795-55.398-55.501c-30.515-30.515-55.501-56.013-55.501-56.525 0-0.614 6.963-7.987 15.36-16.384l15.36-15.36 111.309 111.309 18.33 0.819c10.035 0.512 39.117 1.946 64.41 3.072l46.080 2.253 44.237 44.134c24.371 24.269 44.134 44.237 43.93 44.442-0.102 0.102-35.84-1.434-79.258-3.482-59.904-2.867-79.36-3.482-80.282-2.56-0.819 0.819-0.205 20.378 2.662 80.179 2.048 43.418 3.584 79.155 3.379 79.36-0.102 0.205-20.173-19.558-44.442-43.93zM2.56 555.622c1.126-1.024 24.678-22.221 52.224-47.206 64.205-58.061 61.952-55.808 61.952-60.416s2.253-2.355-61.952-60.416c-27.546-24.986-51.098-46.182-52.224-47.206-1.946-1.946-0.41-1.946 60.928-1.946l62.976 0.102 95.744 86.938h167.936v45.056h-167.936l-95.744 86.938-62.976 0.102c-61.338 0-62.874 0-60.928-1.946zM849.715 514.048l-47.923-43.52h-167.936v-45.056h167.936l95.744-86.938 62.976-0.102c61.338 0 62.874 0 60.928 1.946-1.126 1.024-24.576 22.221-52.224 47.206-64.205 58.061-61.952 55.808-61.952 60.416s-2.253 2.355 61.952 60.416c27.648 24.986 51.098 46.182 52.224 47.206 1.946 1.946 0.41 1.946-60.928 1.946l-62.976-0.102-47.821-43.418zM496.128 519.987c-22.63-4.813-43.315-22.118-52.531-44.032-5.325-12.595-6.861-30.925-3.789-44.134 5.222-22.221 20.378-40.755 40.96-50.483 42.496-19.866 92.57 4.608 103.424 50.483 1.946 8.294 1.946 24.064 0 32.358-9.318 39.424-48.538 64.307-88.064 55.808zM526.848 477.491c11.366-5.939 17.92-16.691 17.92-29.491s-6.451-23.45-17.92-29.491c-4.506-2.458-6.246-2.765-14.848-2.765s-10.342 0.307-14.848 2.765c-6.656 3.584-12.083 9.216-15.258 16.179-5.427 11.674-2.765 26.726 6.349 36.147 7.066 7.373 14.029 10.035 25.293 9.523 6.349-0.205 9.318-0.819 13.312-2.867zM347.546 322.97l-55.398-55.398-18.33-0.819c-10.035-0.512-39.014-1.946-64.41-3.072l-46.080-2.253-44.237-44.134c-24.371-24.269-44.134-44.237-43.93-44.442 0.102-0.102 35.84 1.434 79.258 3.482 59.904 2.867 79.36 3.482 80.282 2.56 0.819-0.819 0.205-20.378-2.662-80.179-2.048-43.418-3.584-79.155-3.379-79.36 0.102-0.205 20.173 19.558 44.442 43.93l44.134 44.237 2.97 63.795 3.072 63.795 55.398 55.501c30.515 30.515 55.501 56.013 55.501 56.525 0 1.024-29.696 31.232-30.72 31.232-0.307 0-25.395-24.883-55.91-55.398zM604.877 363.213c-8.294-8.294-15.053-15.565-15.053-16.077 0-0.614 24.986-26.010 55.501-56.525l55.398-55.501 3.072-63.795 2.97-63.795 44.134-44.237c24.269-24.371 44.339-44.134 44.442-43.93 0.205 0.205-1.331 35.942-3.379 79.36-2.867 59.802-3.482 79.36-2.662 80.179 0.922 0.922 20.378 0.307 80.282-2.56 43.418-2.048 79.155-3.584 79.258-3.482 0.205 0.205-19.558 20.173-43.93 44.442l-44.237 44.134-46.080 2.253c-25.293 1.126-54.374 2.56-64.41 3.072l-18.33 0.819-55.398 55.398c-30.515 30.515-55.603 55.398-55.91 55.398s-7.373-6.758-15.667-15.155zM488.448 242.176v-85.094l-43.008-47.309-42.906-47.309-0.102-62.976v-62.976l4.403 4.915c2.355 2.662 26.010 28.774 52.429 58.061l48.128 53.146h9.216l48.128-53.146c26.522-29.286 50.074-55.398 52.429-58.061l4.403-4.915v62.976l-0.102 62.976-42.906 47.309-43.008 47.309v170.086h-47.104v-84.992z" />
<glyph unicode="&#xe934;" glyph-name="tag" data-tags="tag" d="M0.717 803.635c-0.41-0.307-0.717-149.402-0.717-331.264v-330.547h52.224v593.92h651.264v60.109l-3.072 4.198-3.072 4.301h-347.955c-191.386 0-348.365-0.307-348.672-0.717zM103.117 678.707c-0.41-0.307-0.717-133.939-0.717-296.96v-296.243h727.552l4.71 7.475c2.56 3.994 46.080 70.656 96.563 148.070l91.853 140.595-40.141 61.645c-22.016 33.792-65.434 100.557-96.461 148.173l-56.32 86.63-95.846 0.614c-124.826 0.922-630.374 0.922-631.194 0zM867.942 437.658c27.443-5.018 46.49-27.955 46.49-55.808 0-23.552-14.438-43.93-37.376-52.634-4.198-1.536-9.318-2.458-16.077-2.867-8.704-0.41-10.957-0.102-18.432 2.15-24.576 7.782-40.141 28.672-40.038 54.067 0.102 15.462 5.427 28.467 16.282 39.322 12.902 12.902 31.744 18.944 49.152 15.77z" />
<glyph unicode="&#xe935;" glyph-name="th-large" data-tags="th-large" d="M575.693 735.539l0.307-224.563 448-0.512v449.536h-448.512l0.205-224.461zM0 650.24v-224.768l449.024 0.512 0.307 224.563 0.205 224.461h-449.536v-224.768zM0 160.256v-224.256h449.536l-0.205 224.051-0.307 223.949-449.024 0.512v-224.256zM491.213 383.795c-0.41-0.307-0.717-101.274-0.717-224.256v-223.539h449.536v448.512h-224.051c-123.29 0-224.461-0.307-224.768-0.717z" />
<glyph unicode="&#xe936;" glyph-name="times" data-tags="times" d="M149.709 810.189c-38.4-38.4-69.837-70.144-69.837-70.451s65.536-66.15 145.51-146.227l145.613-145.715-291.328-291.43 69.837-70.246c38.502-38.605 70.246-70.246 70.656-70.246s65.946 65.229 145.613 144.896c79.667 79.667 145.408 144.896 146.125 144.896s66.56-65.229 146.227-144.896c79.667-79.667 145.203-144.896 145.51-144.896 0.41 0 32.256 31.539 70.861 70.144l70.144 70.144-291.738 291.738 145.613 145.613c80.077 80.179 145.613 145.92 145.613 146.227 0 0.41-31.539 32.154-70.144 70.758l-70.144 70.144-291.84-291.84-145.715 145.715c-80.077 80.077-145.818 145.613-146.125 145.613s-31.949-31.437-70.451-69.939z" />
<glyph unicode="&#xe937;" glyph-name="trash" data-tags="trash" d="M299.008 908.8v-51.2h-222.208v-87.040h870.4v87.040h-222.208v102.4h-425.984v-51.2zM672.768 882.688v-25.088h-321.536v50.176h321.536v-25.088zM130.56 743.629c-0.307-0.614-0.41-19.251-0.307-41.165l0.307-39.936 26.419-0.307 26.317-0.205v-726.016h658.432v726.016h51.2v82.944h-380.928c-304.23 0-381.133-0.307-381.44-1.331zM411.648 337.92v-299.52h-120.832v599.040h120.832v-299.52zM572.416 337.92v-299.52h-120.832v599.040h120.832v-299.52zM733.184 337.92v-299.52h-120.832v599.040h120.832v-299.52z" />
<glyph unicode="&#xe938;" glyph-name="upload" data-tags="upload" d="M399.36 804.147c-61.645-85.197-123.494-170.598-137.421-189.85-14.029-19.251-25.395-35.328-25.395-35.635s42.906-0.614 95.232-0.614h95.232v-394.24l170.496 0.512 0.307 196.915 0.205 196.813h94.72c52.122 0 94.72 0.205 94.72 0.512 0 0.922-274.739 380.416-275.456 380.416-0.307 0-50.995-69.632-112.64-154.829zM0 21.504v-85.504h1022.976v171.008h-1022.976v-85.504z" />
<glyph unicode="&#xe939;" glyph-name="wallet" data-tags="wallet" d="M882.176 948.531c-20.787-5.12-168.755-40.653-328.704-79.155-159.949-38.4-349.901-84.173-422.195-101.478l-131.277-31.642v-29.901c0-18.637 0.41-30.003 1.024-30.003 1.024 0 187.29 44.646 390.656 93.696 70.963 17.101 217.498 52.326 325.632 78.336 108.134 25.907 198.349 47.616 200.499 48.23l3.789 1.024v30.106c0 16.589-0.307 30.208-0.717 30.106-0.512-0.102-17.818-4.198-38.707-9.318zM726.016 803.226c-107.315-25.805-247.808-59.699-312.32-75.264-64.512-15.462-151.757-36.557-194.048-46.694-42.189-10.138-88.576-21.299-102.912-24.883l-26.112-6.451 830.976-0.205v100.352c0 55.194-0.102 100.352-0.205 100.25-0.205-0.102-88.064-21.299-195.379-47.104zM472.883 604.979l-472.883-0.307v-668.672h1024v669.696l-39.117-0.205c-21.606-0.205-252.006-0.41-512-0.512zM1015.808 447.488v-28.16h-503.808v-291.84h503.808v-62.464h-562.176v410.624h562.176v-28.16zM682.496 364.544c8.499-2.355 24.064-9.83 31.642-15.258 6.861-4.915 17.306-15.155 22.016-21.606 16.384-22.528 22.426-53.862 15.565-80.896-4.506-17.715-17.613-38.605-31.13-49.869-16.282-13.517-32.154-20.070-53.965-22.528-19.354-2.048-41.574 2.97-58.573 13.21-20.582 12.288-36.454 32.973-43.315 56.115-4.915 16.486-4.608 40.346 0.614 56.218 10.957 33.178 38.298 57.958 72.192 65.536 9.318 2.15 36.045 1.536 44.954-0.922z" />
<glyph unicode="&#xe93a;" glyph-name="wheel" data-tags="wheel" d="M476.672 958.874c-41.779-2.867-88.371-12.083-128.512-25.498-110.285-36.864-208.486-114.483-270.541-213.914-37.581-60.109-62.464-128.102-72.397-197.734-6.451-44.954-6.758-92.877-1.024-138.24 21.402-169.882 126.566-317.133 280.986-393.728 24.986-12.39 43.11-19.866 66.56-27.443 80.486-26.317 166.4-32.256 249.856-17.51 136.909 24.269 258.048 103.731 336.077 220.57 45.67 68.301 73.421 145.613 82.944 230.912 2.253 20.173 2.56 77.619 0.512 98.304-8.499 86.118-35.021 162.509-80.896 232.96-20.173 31.027-39.526 54.784-66.253 81.408-41.779 41.779-86.528 73.933-137.216 98.816-56.218 27.546-108.442 42.394-174.080 49.766-16.998 1.843-66.765 2.662-86.016 1.331zM539.75 801.28c94.208-7.373 182.272-52.941 243.61-126.054 79.667-95.027 103.629-225.587 62.874-343.040-27.136-78.131-81.51-144.998-152.986-187.904-40.653-24.474-81.51-38.912-131.584-46.592-17.101-2.662-64.922-3.789-83.046-2.048-79.667 7.987-149.504 39.424-208.179 93.696-62.362 57.754-100.557 133.427-110.899 220.262-1.741 14.848-1.741 65.331 0 78.336 6.451 47.206 16.384 80.589 35.021 117.862 7.68 15.258 12.698 24.064 20.787 36.25 47.616 71.987 116.634 122.982 198.861 146.944 19.558 5.734 45.363 10.138 73.216 12.698 8.909 0.717 39.731 0.512 52.326-0.41zM479.232 763.392c-0.819-0.512-8.192-1.843-16.384-3.072-34.202-4.813-68.813-16.486-101.683-33.997-58.675-31.437-110.285-86.835-137.626-147.763-12.288-27.443-21.504-59.494-24.883-87.040-0.614-5.018-1.638-10.035-2.15-10.957-1.126-2.253-1.229-64.307-0.102-64.307 0.41 0 1.331-4.506 2.048-9.933 12.8-101.478 77.414-192.614 169.779-239.616 34.611-17.613 66.662-27.341 107.213-32.563 2.662-0.307 4.813-1.024 4.813-1.638 0-1.229 63.181-1.229 63.693 0.102 0.205 0.512 5.427 1.741 11.571 2.56 60.518 8.909 113.664 32.563 159.027 70.656 60.109 50.688 98.509 119.398 109.875 196.608 1.024 7.27 2.355 13.414 2.97 13.619 1.331 0.512 1.434 63.693 0 63.693-0.512 0-1.126 1.536-1.434 3.379-0.307 1.741-1.331 8.602-2.253 15.053s-3.277 18.022-5.12 25.6c-30.618 125.645-136.806 220.877-265.011 237.67-5.427 0.717-9.83 1.638-9.83 2.15 0 1.126-62.566 0.922-64.512-0.205zM460.288 669.184l19.456-0.512 0.307-55.091c0.205-51.712 0.102-55.091-1.536-55.706-1.024-0.307-5.734-2.15-10.547-4.096s-9.421-3.789-10.342-4.096c-1.126-0.307-14.131 11.981-41.267 39.219l-39.629 39.629 13.824 13.926 13.926 13.926-25.805 25.805 6.451 3.584c10.547 5.837 22.938 11.059 39.322 16.794l15.36 5.325 0.512-19.149 0.512-19.046 19.456-0.512zM593.92 704.614c11.162-3.482 29.696-11.264 41.267-17.306l10.035-5.222-25.702-25.702 27.648-27.648-40.141-40.141-40.038-40.141-5.222 2.662c-2.867 1.434-7.987 3.686-11.366 4.915l-6.144 2.355-0.307 55.398-0.205 55.398h38.912v18.944c0 21.811-1.024 20.378 11.264 16.486zM407.245 495.002c-1.946-4.71-3.994-9.933-4.506-11.674l-1.024-3.072-50.79-0.307-50.893-0.205v39.936h-47.923l2.048 6.963c4.608 15.36 19.763 50.176 23.347 53.862 0.614 0.614 5.734-3.891 13.312-11.469 6.758-6.861 12.595-12.493 13.107-12.493 0.41 0 6.758 6.042 14.029 13.312l13.312 13.312 79.667-79.667-3.686-8.499zM706.253 569.651l13.619-13.619 12.595 12.595c6.861 6.861 12.8 12.493 13.107 12.493s4.096-7.27 8.294-16.077c6.758-14.131 14.438-33.894 16.589-42.496l0.614-2.867-18.637-0.205-18.739-0.307-0.307-19.661-0.205-19.763h-111.309l-1.229 4.403c-0.717 2.355-2.867 7.782-4.813 11.981l-3.584 7.578 39.731 39.731c21.811 21.811 39.936 39.731 40.243 39.731s6.554-6.144 14.029-13.517zM523.264 521.626c16.589-2.662 28.365-8.806 40.96-21.402 9.626-9.626 14.234-16.691 17.92-27.341 12.595-36.147-3.379-75.162-37.581-91.853-11.571-5.632-18.842-7.168-33.587-7.168-10.957 0.102-13.926 0.512-20.992 2.765-24.576 8.090-42.086 26.010-49.766 50.893-3.482 11.059-3.482 30.003-0.102 40.96 3.277 10.342 7.27 17.92 13.517 25.702 17.101 21.299 43.52 31.744 69.632 27.443zM403.866 409.6c1.331-3.379 3.379-8.602 4.71-11.571l2.355-5.53-79.155-79.155-28.262 28.262-12.493-12.902c-6.963-7.066-13.005-12.595-13.619-12.288-1.331 0.922-10.445 19.046-14.438 28.979-1.741 4.301-4.915 13.21-7.066 19.661l-3.891 11.776 24.064 0.307 23.962 0.205v38.912l50.79-0.205 50.79-0.307 2.253-6.144zM733.184 396.8v-19.456h18.944c12.186 0 18.944-0.41 18.944-1.024 0-5.222-16.179-45.158-23.040-56.832l-2.765-4.813-13.005 12.902-12.902 12.902-13.312-13.312c-7.27-7.373-13.619-13.21-14.029-13.107-0.41 0.205-18.432 17.92-40.141 39.526l-39.322 39.219 3.891 8.397c2.15 4.608 4.198 9.933 4.608 11.776l0.717 3.277h111.411v-19.456zM462.95 344.474c3.584-1.843 8.909-3.994 11.674-5.018l5.12-1.741v-110.387l-19.661-0.307-19.763-0.205v-18.944c0-10.445-0.205-18.944-0.512-18.944-1.741 0-21.914 7.066-32.461 11.366-10.342 4.198-26.419 12.083-28.467 13.926-0.205 0.205 5.222 6.042 12.083 12.902s12.493 13.005 12.493 13.517c0 0.614-5.734 6.758-12.8 13.824s-12.8 13.21-12.8 13.824c0 0.717 77.722 79.36 78.438 79.36 0 0 2.97-1.434 6.656-3.174zM632.832 253.952l-13.824-13.824 12.8-12.8c10.445-10.445 12.493-13.005 11.264-13.926-3.277-2.15-17.408-9.011-27.136-13.21-9.523-4.096-30.208-11.264-32.358-11.264-0.512 0-0.922 7.782-0.922 18.944v18.944l-19.149 0.205-19.251 0.307-0.307 55.398-0.205 55.501 4.301 1.024c2.458 0.614 7.68 2.765 11.571 4.71l7.168 3.482 79.872-79.667-13.824-13.824z" />
<glyph unicode="&#xe93b;" glyph-name="arrow-down-circle" data-tags="arrow-down-circle" d="M476.672 958.874c-41.779-2.867-88.371-12.083-128.512-25.498-110.285-36.864-208.486-114.483-270.541-213.914-37.581-60.109-62.464-128.102-72.397-197.734-6.451-44.954-6.758-92.877-1.024-138.24 21.402-169.882 126.566-317.133 280.986-393.728 24.986-12.39 43.11-19.866 66.56-27.443 80.486-26.317 166.4-32.256 249.856-17.51 136.909 24.269 258.048 103.731 336.077 220.57 45.67 68.301 73.421 145.613 82.944 230.912 2.253 20.173 2.56 77.619 0.512 98.304-8.499 86.118-35.021 162.509-80.896 232.96-20.173 31.027-39.526 54.784-66.253 81.408-41.779 41.779-86.528 73.933-137.216 98.816-56.218 27.546-108.442 42.394-174.080 49.766-16.998 1.843-66.765 2.662-86.016 1.331zM562.688 907.264c104.141-12.186 196.403-55.808 270.746-128 38.298-37.274 68.915-79.155 92.467-126.976 44.544-90.419 58.266-194.765 38.605-293.888-8.397-42.189-20.48-77.312-40.55-117.248-23.040-45.978-48.742-81.408-86.221-118.886-37.376-37.376-72.294-62.771-118.374-86.016-49.254-24.781-94.208-38.502-151.040-46.080-23.040-3.072-76.493-3.891-100.864-1.434-91.853 9.011-176.128 43.622-247.194 101.478-86.938 70.963-145.306 170.598-163.84 279.962-4.915 28.672-5.734 39.936-5.734 78.336 0 39.731 0.922 51.098 6.246 81.408 24.166 135.578 108.954 254.157 230.093 322.048 54.989 30.72 118.579 50.483 180.224 55.808 6.861 0.512 14.131 1.229 16.077 1.434 9.114 1.024 65.946-0.307 79.36-1.946zM274.637 575.693l-18.739-18.739 127.386-127.693c70.144-70.246 127.898-127.693 128.41-127.693 1.229 0 255.283 254.259 255.283 255.488 0 0.614-8.294 9.318-18.432 19.456l-18.432 18.432-218.112-218.112-108.851 108.851c-59.802 59.802-108.954 108.749-109.261 108.749s-9.011-8.397-19.251-18.739z" />
<glyph unicode="&#xe93c;" glyph-name="arrow-left-circle" data-tags="arrow-left-circle" d="M476.672 958.874c-41.779-2.867-88.371-12.083-128.512-25.498-110.285-36.864-208.486-114.483-270.541-213.914-37.581-60.109-62.464-128.102-72.397-197.734-6.451-44.954-6.758-92.877-1.024-138.24 21.402-169.882 126.566-317.133 280.986-393.728 24.986-12.39 43.11-19.866 66.56-27.443 80.486-26.317 166.4-32.256 249.856-17.51 136.909 24.269 258.048 103.731 336.077 220.57 45.67 68.301 73.421 145.613 82.944 230.912 2.253 20.173 2.56 77.619 0.512 98.304-8.499 86.118-35.021 162.509-80.896 232.96-20.173 31.027-39.526 54.784-66.253 81.408-41.779 41.779-86.528 73.933-137.216 98.816-56.218 27.546-108.442 42.394-174.080 49.766-16.998 1.843-66.765 2.662-86.016 1.331zM562.688 907.264c104.141-12.186 196.403-55.808 270.746-128 38.298-37.274 68.915-79.155 92.467-126.976 44.544-90.419 58.266-194.765 38.605-293.888-8.397-42.189-20.48-77.312-40.55-117.248-23.040-45.978-48.742-81.408-86.221-118.886-37.376-37.376-72.294-62.771-118.374-86.016-49.254-24.781-94.208-38.502-151.040-46.080-23.040-3.072-76.493-3.891-100.864-1.434-91.853 9.011-176.128 43.622-247.194 101.478-86.938 70.963-145.306 170.598-163.84 279.962-4.915 28.672-5.734 39.936-5.734 78.336 0 39.731 0.922 51.098 6.246 81.408 24.166 135.578 108.954 254.157 230.093 322.048 54.989 30.72 118.579 50.483 180.224 55.808 6.861 0.512 14.131 1.229 16.077 1.434 9.114 1.024 65.946-0.307 79.36-1.946zM493.261 576.41c-70.246-70.144-127.693-127.898-127.693-128.205 0-0.41 57.446-58.163 127.795-128.512l127.693-127.693 37.888 37.888-218.112 218.112 218.112 218.112-18.944 18.944-18.944 18.842-127.795-127.488z" />
<glyph unicode="&#xe93d;" glyph-name="arrow-right-circle" data-tags="arrow-right-circle" d="M476.672 958.874c-41.779-2.867-88.371-12.083-128.512-25.498-110.285-36.864-208.486-114.483-270.541-213.914-37.581-60.109-62.464-128.102-72.397-197.734-6.451-44.954-6.758-92.877-1.024-138.24 21.402-169.882 126.566-317.133 280.986-393.728 24.986-12.39 43.11-19.866 66.56-27.443 80.486-26.317 166.4-32.256 249.856-17.51 136.909 24.269 258.048 103.731 336.077 220.57 45.67 68.301 73.421 145.613 82.944 230.912 2.253 20.173 2.56 77.619 0.512 98.304-8.499 86.118-35.021 162.509-80.896 232.96-20.173 31.027-39.526 54.784-66.253 81.408-41.779 41.779-86.528 73.933-137.216 98.816-56.218 27.546-108.442 42.394-174.080 49.766-16.998 1.843-66.765 2.662-86.016 1.331zM562.688 907.264c104.141-12.186 196.403-55.808 270.746-128 38.298-37.274 68.915-79.155 92.467-126.976 44.544-90.419 58.266-194.765 38.605-293.888-8.397-42.189-20.48-77.312-40.55-117.248-23.040-45.978-48.742-81.408-86.221-118.886-37.376-37.376-72.294-62.771-118.374-86.016-49.254-24.781-94.208-38.502-151.040-46.080-23.040-3.072-76.493-3.891-100.864-1.434-91.853 9.011-176.128 43.622-247.194 101.478-86.938 70.963-145.306 170.598-163.84 279.962-4.915 28.672-5.734 39.936-5.734 78.336 0 39.731 0.922 51.098 6.246 81.408 24.166 135.578 108.954 254.157 230.093 322.048 54.989 30.72 118.579 50.483 180.224 55.808 6.861 0.512 14.131 1.229 16.077 1.434 9.114 1.024 65.946-0.307 79.36-1.946zM384 685.056l-18.944-18.944 218.112-218.112-218.112-218.112 37.99-37.99 127.693 127.386c70.246 70.144 127.693 127.898 127.693 128.41 0 0.41-57.446 58.266-127.795 128.614l-127.693 127.693-18.944-18.944z" />
<glyph unicode="&#xe93e;" glyph-name="arrow-up-circle" data-tags="arrow-up-circle" d="M476.672 958.874c-41.779-2.867-88.371-12.083-128.512-25.498-110.285-36.864-208.486-114.483-270.541-213.914-37.581-60.109-62.464-128.102-72.397-197.734-6.451-44.954-6.758-92.877-1.024-138.24 21.402-169.882 126.566-317.133 280.986-393.728 24.986-12.39 43.11-19.866 66.56-27.443 80.486-26.317 166.4-32.256 249.856-17.51 136.909 24.269 258.048 103.731 336.077 220.57 45.67 68.301 73.421 145.613 82.944 230.912 2.253 20.173 2.56 77.619 0.512 98.304-8.499 86.118-35.021 162.509-80.896 232.96-20.173 31.027-39.526 54.784-66.253 81.408-41.779 41.779-86.528 73.933-137.216 98.816-56.218 27.546-108.442 42.394-174.080 49.766-16.998 1.843-66.765 2.662-86.016 1.331zM562.688 907.264c104.141-12.186 196.403-55.808 270.746-128 38.298-37.274 68.915-79.155 92.467-126.976 44.544-90.419 58.266-194.765 38.605-293.888-8.397-42.189-20.48-77.312-40.55-117.248-23.040-45.978-48.742-81.408-86.221-118.886-37.376-37.376-72.294-62.771-118.374-86.016-49.254-24.781-94.208-38.502-151.040-46.080-23.040-3.072-76.493-3.891-100.864-1.434-91.853 9.011-176.128 43.622-247.194 101.478-86.938 70.963-145.306 170.598-163.84 279.962-4.915 28.672-5.734 39.936-5.734 78.336 0 39.731 0.922 51.098 6.246 81.408 24.166 135.578 108.954 254.157 230.093 322.048 54.989 30.72 118.579 50.483 180.224 55.808 6.861 0.512 14.131 1.229 16.077 1.434 9.114 1.024 65.946-0.307 79.36-1.946zM383.693 466.637l-127.693-127.693 37.888-37.888 218.112 218.112 218.112-218.112 37.99 37.99-127.386 127.693c-70.144 70.246-127.898 127.693-128.41 127.693-0.41 0-58.266-57.446-128.614-127.795z" />
<glyph unicode="&#xe93f;" glyph-name="badge-circle" data-tags="badge-circle" d="M476.672 958.874c-41.779-2.867-88.371-12.083-128.512-25.498-110.285-36.864-208.486-114.483-270.541-213.914-37.581-60.109-62.464-128.102-72.397-197.734-6.451-44.954-6.758-92.877-1.024-138.24 21.402-169.882 126.566-317.133 280.986-393.728 24.986-12.39 43.11-19.866 66.56-27.443 80.486-26.317 166.4-32.256 249.856-17.51 136.909 24.269 258.048 103.731 336.077 220.57 45.67 68.301 73.421 145.613 82.944 230.912 2.253 20.173 2.56 77.619 0.512 98.304-8.499 86.118-35.021 162.509-80.896 232.96-20.173 31.027-39.526 54.784-66.253 81.408-41.779 41.779-86.528 73.933-137.216 98.816-56.218 27.546-108.442 42.394-174.080 49.766-16.998 1.843-66.765 2.662-86.016 1.331zM549.376 918.016c84.173-6.861 163.021-35.123 232.653-83.661 39.936-27.75 79.36-66.458 109.466-107.418 71.782-97.382 102.81-217.907 87.347-339.354-10.65-83.661-45.363-165.99-97.587-231.424-57.754-72.294-134.554-126.362-219.853-154.624-105.677-35.123-220.058-32.051-323.994 8.704-16.077 6.246-50.074 23.040-65.229 32.051-35.942 21.504-62.669 42.496-93.594 73.318-26.829 26.931-43.315 47.206-63.181 77.619-34.202 52.429-57.754 112.742-68.301 175.309-12.8 75.469-7.27 152.986 15.872 224.87 38.912 120.32 127.078 222.208 240.64 278.016 76.698 37.683 160.051 53.453 245.76 46.592zM500.736 697.242c-10.24-2.15-17.51-5.12-36.762-14.95-24.678-12.493-28.672-13.619-66.662-19.251-36.966-5.53-47.923-14.029-66.56-51.2-11.674-23.347-17.715-31.232-39.117-50.586-19.456-17.715-27.136-29.184-29.491-44.032-1.331-8.397-0.717-16.794 2.56-35.43 3.482-19.456 4.915-33.178 4.096-40.346-0.307-3.482-2.048-14.336-3.789-24.166-4.198-23.347-4.403-37.274-0.717-47.104s9.626-17.715 22.016-29.696c29.696-28.57 30.822-30.003 44.544-56.525 14.029-27.034 20.992-35.43 35.123-42.291 9.626-4.71 15.77-6.144 39.834-9.728 28.262-4.198 33.792-5.837 57.037-17.613 25.293-12.8 35.635-16.282 49.050-16.384 8.499-0.102 11.264 0.41 19.763 3.174 5.53 1.843 17.101 6.963 25.907 11.366 26.317 13.619 32.563 15.565 60.928 19.456 28.979 3.994 40.141 7.68 50.995 16.896 7.168 6.246 13.005 14.746 23.347 34.406 13.107 25.088 16.077 29.184 30.515 42.906 27.136 25.805 33.28 33.485 37.274 46.080 2.765 9.011 2.15 24.781-1.741 46.49-3.994 22.221-4.301 35.226-1.126 52.838 6.656 37.376 6.656 44.954 0 59.187-4.403 9.421-10.24 16.384-29.184 34.406-9.318 8.909-18.944 19.046-21.402 22.528-2.458 3.379-8.909 14.643-14.234 24.986-10.957 20.992-14.643 26.419-22.835 33.894-10.035 9.216-23.142 14.029-46.49 16.998-31.232 4.096-37.376 5.939-63.181 18.739-21.197 10.547-30.003 14.029-39.219 15.565-8.499 1.331-12.288 1.229-20.48-0.614zM526.95 671.232c5.12-1.331 15.258-5.632 27.546-11.776 10.752-5.325 22.733-10.547 26.624-11.674 6.246-1.843 22.016-4.608 37.888-6.758 15.565-2.048 29.184-7.885 37.376-16.282 6.963-7.066 9.011-10.342 19.558-30.515 5.018-9.626 10.752-19.558 12.902-22.221 2.048-2.56 11.878-12.8 21.914-22.63 16.384-16.179 18.432-18.739 22.016-26.010 3.686-7.578 3.994-8.909 4.301-18.944 0.307-8.704-0.205-14.336-2.765-28.774-4.096-23.142-4.096-31.539 0-54.989 2.56-14.746 3.072-20.275 2.765-28.979-0.717-17.818-5.222-25.088-29.798-48.435-8.192-7.782-16.589-16.384-18.637-19.046-1.946-2.765-7.578-12.595-12.39-21.709-19.968-37.99-27.136-43.11-69.018-49.050-24.678-3.482-30.31-5.325-56.832-18.739-24.678-12.39-38.707-14.643-55.808-8.909-5.018 1.638-16.384 6.656-25.293 11.059-23.347 11.674-26.726 12.698-59.085 17.715-35.43 5.325-43.418 11.366-61.645 46.49-4.301 8.499-9.318 17.408-10.957 19.968s-11.162 12.698-21.197 22.528c-19.866 19.558-25.293 26.829-28.16 37.274-2.355 8.704-1.638 23.347 1.946 42.496 3.584 18.534 3.482 29.594-0.41 52.838-3.686 21.709-3.891 31.437-1.024 40.755 3.174 10.24 8.909 17.715 26.829 34.714 9.011 8.602 17.92 17.818 19.866 20.378 1.946 2.662 7.475 12.288 12.288 21.504 10.547 19.968 14.848 26.419 21.606 32.87 9.626 8.909 18.739 12.083 47.411 16.282 24.678 3.584 30.618 5.427 52.736 16.589 28.16 14.131 39.629 16.486 57.446 11.981zM500.224 647.168c-3.379-0.922-15.155-5.939-26.112-11.264-21.606-10.445-25.702-11.674-48.128-14.848-16.589-2.355-27.136-5.12-33.382-8.806-7.885-4.506-15.872-14.541-23.962-30.208-11.264-21.606-13.824-25.088-32.666-43.725-18.637-18.534-21.606-22.733-23.757-34.509-1.229-6.861-0.922-11.674 2.765-33.792 3.072-19.149 3.072-26.317 0-43.725-3.482-19.354-4.096-26.931-2.765-34.099 2.15-11.571 5.12-15.974 25.19-36.352 19.354-19.661 21.606-22.733 31.232-41.984 8.704-17.306 15.155-25.088 25.6-30.618 6.963-3.686 13.824-5.427 34.304-8.294 17.92-2.662 30.106-6.349 43.008-13.312 22.221-11.878 33.894-15.258 46.797-13.312 9.216 1.331 15.462 3.789 34.611 13.312 16.896 8.499 23.757 10.547 42.906 13.312 26.317 3.686 35.123 6.861 44.134 15.667 5.939 5.939 8.806 10.342 17.408 26.829 4.096 7.885 8.909 16.384 10.752 18.944 1.946 2.56 10.445 11.571 19.149 20.070 26.829 26.522 28.467 31.744 21.811 70.349-3.277 19.354-3.277 23.040 0.614 45.875 3.994 23.757 3.789 31.539-1.229 41.779-2.765 5.53-6.758 10.342-22.323 26.214l-19.046 19.456-8.602 16.384c-4.71 9.011-10.035 18.432-11.776 20.992-10.24 15.053-20.685 19.968-52.122 24.064-16.998 2.253-27.341 5.53-44.544 14.234-8.294 4.198-18.022 8.602-21.709 9.83-8.602 2.867-20.173 3.482-28.16 1.536zM525.312 621.466c3.072-0.922 12.288-5.018 20.582-9.114 17.613-8.806 21.402-10.035 40.346-12.8 31.642-4.608 38.605-9.114 51.2-33.997 9.216-18.022 12.083-21.811 28.058-37.683 18.637-18.432 20.787-22.118 21.402-35.43 0.307-6.861-0.307-13.312-2.355-25.6-3.072-17.92-2.97-20.787 0.614-41.37 1.536-8.294 2.048-14.643 1.741-21.504-0.512-13.824-2.56-17.306-21.402-35.84-15.872-15.667-18.534-19.251-27.955-37.478-12.083-23.347-21.299-29.901-46.387-33.28-21.914-2.97-27.136-4.403-46.182-13.517-20.275-9.728-23.757-10.957-32.256-10.957-9.216 0-14.234 1.638-33.485 10.854-18.842 9.114-23.45 10.445-47.002 13.722-18.534 2.56-28.672 7.475-36.25 17.51-2.458 3.072-7.782 12.288-11.981 20.48l-7.578 14.746-16.486 16.384c-19.968 19.763-22.323 23.654-22.835 37.376-0.205 5.222 0.307 12.493 1.229 17.92 4.198 22.835 4.198 26.112 1.229 44.954-3.584 21.811-3.379 31.13 0.717 39.936 2.253 4.915 5.837 9.011 18.022 20.992 15.77 15.462 19.251 20.070 26.726 34.918 12.595 25.19 20.685 31.744 43.93 35.43 30.413 4.813 30.31 4.71 51.814 15.258 7.373 3.584 15.36 7.27 17.92 8.090 6.144 2.048 19.763 2.048 26.624 0zM500.736 596.582c-3.072-1.024-11.674-4.915-19.149-8.499-13.824-6.861-16.179-7.475-38.195-11.059-22.938-3.686-28.467-7.987-41.062-32.051-6.144-11.674-7.475-13.414-20.89-27.341-9.114-9.318-15.36-16.691-16.794-19.763-3.379-7.066-3.789-14.541-1.229-29.082 2.765-15.667 2.765-26.419 0-41.267-4.096-22.528-2.048-28.877 14.95-45.568 13.619-13.517 17.818-18.739 23.245-29.594 12.186-24.166 18.739-29.696 39.629-32.973 23.142-3.686 25.805-4.403 42.291-12.288 26.419-12.595 30.72-12.595 56.934-0.102 16.589 7.885 18.637 8.499 39.936 11.981 23.757 3.789 29.286 8.397 42.803 34.816 4.403 8.704 6.554 11.366 19.558 24.678 10.24 10.547 15.36 16.486 16.896 19.968 3.174 7.27 3.482 16.282 0.922 30.106-2.662 14.746-2.662 23.552 0 39.219 2.765 15.872 2.355 23.962-1.638 31.334-1.741 3.174-8.499 10.957-16.896 19.354-13.517 13.619-14.131 14.438-20.992 27.648-12.288 23.859-17.715 27.853-42.496 31.437-18.33 2.662-23.757 4.301-38.912 11.674-19.866 9.728-27.443 11.162-38.912 7.373z" />
<glyph unicode="&#xe940;" glyph-name="ban-circle" data-tags="ban-circle" d="M472.064 958.464c-104.653-8.192-202.24-47.104-282.112-112.435-72.704-59.597-124.723-131.379-157.389-217.293-15.77-41.574-25.702-85.094-30.72-134.656-1.741-16.896-1.741-73.318 0-90.624 6.656-66.355 22.016-121.958 49.254-178.176 33.69-69.53 80.896-128.102 143.462-178.176 45.363-36.352 101.99-66.867 157.184-84.787 80.486-26.317 166.4-32.256 249.856-17.51 111.718 19.763 212.685 75.878 289.792 161.178 73.216 80.896 116.736 178.688 129.229 290.304 2.253 20.070 2.56 77.722 0.512 97.792-6.758 67.072-22.528 123.187-50.381 179.712-38.195 77.517-95.232 144.179-165.888 193.638-71.475 50.176-152.781 80.589-240.64 90.010-20.787 2.253-69.53 2.765-92.16 1.024zM559.104 907.366c58.368-6.451 108.646-21.094 158.72-46.182 60.314-30.208 112.435-72.499 155.034-125.85 77.517-96.973 112.128-221.696 96.256-346.726-11.571-91.238-51.405-177.971-113.664-247.706-68.71-76.902-159.539-127.898-261.018-146.534-25.702-4.71-42.086-6.246-71.373-6.861-51.2-1.126-95.027 4.506-141.312 18.022-157.082 46.080-279.347 173.67-318.157 331.878-8.294 34.099-12.083 63.386-13.107 100.864-2.662 104.448 29.901 205.312 93.184 288.461 37.888 49.971 84.685 91.136 139.469 122.675 58.573 33.792 123.494 53.35 196.608 59.392 15.565 1.229 62.669 0.41 79.36-1.434zM482.509 702.464c-116.122-13.926-206.234-101.171-223.949-216.576-0.922-5.939-1.946-18.842-2.253-28.672-2.458-74.035 24.678-141.619 77.619-193.024 40.038-38.81 90.214-62.771 147.354-70.349 14.541-1.946 50.074-1.638 65.024 0.614 57.549 8.397 107.315 33.485 147.661 74.445 14.029 14.131 20.378 22.016 31.642 39.014 20.48 30.72 34.611 68.301 40.038 106.803 2.355 15.872 2.253 50.278-0.102 67.072-7.68 56.115-32.358 106.189-71.782 146.022-39.219 39.526-88.883 64.819-144.384 73.728-14.234 2.253-51.814 2.765-66.867 0.922zM543.232 662.528c23.142-3.482 41.882-9.421 63.488-19.968 51.302-24.986 90.931-69.325 109.466-122.778 16.384-47.104 16.077-100.147-1.024-146.432-6.554-17.715-17.306-37.786-28.16-52.326l-6.246-8.499-6.144 6.042c-25.6 24.986-297.779 297.882-297.779 298.496 0 1.741 22.426 16.384 34.816 22.835 27.341 14.131 51.098 20.992 84.48 24.576 7.68 0.819 36.864-0.41 47.104-1.946zM495.514 431.206l151.859-151.859-4.506-3.584c-19.251-15.77-52.634-31.642-80.179-38.195-19.968-4.813-31.846-5.939-55.808-5.325-28.979 0.614-47.821 4.198-71.475 13.21-52.224 20.070-93.491 57.856-118.067 107.827-31.642 64.614-29.184 140.083 6.554 202.342 5.12 9.011 17.92 27.546 18.944 27.546 0.41 0 69.12-68.403 152.678-151.962z" />
<glyph unicode="&#xe941;" glyph-name="bell-circle" data-tags="bell-circle" d="M476.672 958.874c-41.779-2.867-88.371-12.083-128.512-25.498-110.285-36.864-208.486-114.483-270.541-213.914-37.581-60.109-62.464-128.102-72.397-197.734-6.451-44.954-6.758-92.877-1.024-138.24 21.402-169.882 126.566-317.133 280.986-393.728 24.986-12.39 43.11-19.866 66.56-27.443 80.486-26.317 166.4-32.256 249.856-17.51 136.909 24.269 258.048 103.731 336.077 220.57 45.67 68.301 73.421 145.613 82.944 230.912 2.253 20.173 2.56 77.619 0.512 98.304-8.499 86.118-35.021 162.509-80.896 232.96-20.173 31.027-39.526 54.784-66.253 81.408-41.779 41.779-86.528 73.933-137.216 98.816-56.218 27.546-108.442 42.394-174.080 49.766-16.998 1.843-66.765 2.662-86.016 1.331zM562.688 907.264c104.141-12.186 196.403-55.808 270.746-128 38.298-37.274 68.915-79.155 92.467-126.976 44.544-90.419 58.266-194.765 38.605-293.888-8.397-42.189-20.48-77.312-40.55-117.248-23.040-45.978-48.742-81.408-86.221-118.886-37.376-37.376-72.294-62.771-118.374-86.016-49.254-24.781-94.208-38.502-151.040-46.080-23.040-3.072-76.493-3.891-100.864-1.434-91.853 9.011-176.128 43.622-247.194 101.478-86.938 70.963-145.306 170.598-163.84 279.962-4.915 28.672-5.734 39.936-5.734 78.336 0 39.731 0.922 51.098 6.246 81.408 24.166 135.578 108.954 254.157 230.093 322.048 54.989 30.72 118.579 50.483 180.224 55.808 6.861 0.512 14.131 1.229 16.077 1.434 9.114 1.024 65.946-0.307 79.36-1.946zM486.4 702.874c-15.155-1.741-37.581-7.373-52.224-13.21-10.342-4.096-27.955-13.517-38.093-20.173-44.442-29.696-76.083-74.138-88.986-124.826-5.325-20.992-6.042-30.413-6.042-74.65v-40.448h-45.056v-76.8h512v76.8h-44.851l-0.512 42.291c-0.512 45.056-1.126 51.917-6.451 73.421-18.739 75.469-79.053 134.861-155.546 152.883-22.63 5.427-51.917 7.27-74.24 4.71zM412.365 326.349c-0.307-0.41-1.331-3.686-2.355-7.373-1.434-5.018-1.843-10.445-1.843-22.528 0-14.029 0.307-17.101 2.765-26.112 8.704-32.256 31.949-58.573 62.464-70.758 23.552-9.318 49.766-9.626 74.342-0.819 15.053 5.325 24.474 11.571 37.478 24.474 15.667 15.565 23.040 28.672 28.365 50.381 2.867 11.878 2.97 33.792 0.102 45.363l-1.843 7.68-99.533 0.307c-54.784 0.102-99.738-0.102-99.942-0.614z" />
<glyph unicode="&#xe942;" glyph-name="box-circle" data-tags="box-circle" d="M476.672 958.874c-41.779-2.867-88.371-12.083-128.512-25.498-110.285-36.864-208.486-114.483-270.541-213.914-37.581-60.109-62.464-128.102-72.397-197.734-6.451-44.954-6.758-92.877-1.024-138.24 21.402-169.882 126.566-317.133 280.986-393.728 24.986-12.39 43.11-19.866 66.56-27.443 80.486-26.317 166.4-32.256 249.856-17.51 136.909 24.269 258.048 103.731 336.077 220.57 45.67 68.301 73.421 145.613 82.944 230.912 2.253 20.173 2.56 77.619 0.512 98.304-8.499 86.118-35.021 162.509-80.896 232.96-20.173 31.027-39.526 54.784-66.253 81.408-41.779 41.779-86.528 73.933-137.216 98.816-56.218 27.546-108.442 42.394-174.080 49.766-16.998 1.843-66.765 2.662-86.016 1.331zM559.104 907.366c58.368-6.451 108.646-21.094 158.72-46.182 119.091-59.699 206.848-167.834 240.128-295.936 21.299-81.818 19.763-168.858-4.198-249.344-33.69-112.64-111.002-209.715-214.426-269.005-52.019-29.901-114.586-50.176-176.128-57.242-30.31-3.482-79.36-2.97-111.104 1.229-152.678 19.866-285.286 114.483-353.894 252.314-68.301 137.421-63.59 301.363 12.698 434.176 18.842 32.87 38.298 58.88 66.867 89.293 65.126 69.53 154.214 117.862 249.242 135.373 14.848 2.662 34.714 5.222 52.736 6.758 15.565 1.229 62.669 0.41 79.36-1.434zM256 448v-256h512v512h-186.368v-256h-133.12v256h-192.512v-256z" />
<glyph unicode="&#xe943;" glyph-name="boxes-circle" data-tags="boxes-circle" d="M483.84 959.386c-2.253-0.205-9.83-0.922-16.896-1.434-102.093-8.704-198.451-47.718-276.992-111.923-35.021-28.672-62.669-57.344-88.166-91.341-55.706-74.138-88.678-158.72-99.43-254.464-2.458-22.733-2.458-77.824 0.102-101.888 6.963-65.741 23.040-121.754 51.405-178.688 37.274-74.854 94.925-141.517 164.25-190.259 40.141-28.16 88.166-52.326 133.632-67.072 80.486-26.317 166.4-32.256 249.856-17.51 117.35 20.787 224.768 82.944 301.466 174.49 75.674 90.317 116.838 198.963 119.603 315.904 2.048 85.094-15.053 163.738-51.917 238.592-25.395 51.814-56.627 95.232-97.69 136.192-84.992 84.582-189.952 134.656-309.35 147.456-14.336 1.638-69.837 2.867-79.872 1.946zM559.104 907.366c66.765-7.373 125.85-26.419 181.862-58.47 108.851-62.464 188.621-167.936 218.419-289.178 13.414-54.17 16.896-115.61 9.83-171.008-18.432-142.643-103.526-269.312-229.888-341.811-52.019-29.901-114.586-50.176-176.128-57.242-30.31-3.482-79.36-2.97-111.104 1.229-100.864 13.107-194.355 58.982-265.728 130.458-78.029 78.029-122.47 171.93-134.349 283.648-1.741 16.896-1.741 71.27 0 87.552 5.427 49.050 16.282 92.57 33.997 135.168 10.547 25.395 31.949 63.488 49.050 87.45 46.899 65.434 105.165 114.586 177.766 149.709 51.098 24.678 104.653 38.81 166.912 43.93 15.565 1.229 62.669 0.41 79.36-1.434zM389.12 580.608v-123.392l246.272 0.512 0.307 123.187 0.205 123.085h-92.16v-122.88h-63.488v122.88h-91.136v-123.392zM256 315.392v-123.392h246.784l-0.205 123.187-0.307 123.085h-91.136l-0.307-61.645-0.205-61.747h-63.488l-0.205 61.747-0.307 61.645-45.261 0.307-45.363 0.205v-123.392zM521.933 438.067c-0.41-0.307-0.717-55.91-0.717-123.392v-122.675h246.784l-0.205 123.187-0.307 123.085-45.261 0.307-45.363 0.205v-123.904h-63.488l-0.205 61.747-0.307 61.645-45.158 0.307c-24.781 0.102-45.466-0.102-45.773-0.512z" />
<glyph unicode="&#xe944;" glyph-name="briefcase-circle" data-tags="briefcase-circle" d="M476.672 958.874c-41.779-2.867-88.371-12.083-128.512-25.498-110.285-36.864-208.486-114.483-270.541-213.914-37.581-60.109-62.464-128.102-72.397-197.734-6.451-44.954-6.758-92.877-1.024-138.24 21.402-169.882 126.566-317.133 280.986-393.728 24.986-12.39 43.11-19.866 66.56-27.443 80.486-26.317 166.4-32.256 249.856-17.51 136.909 24.269 258.048 103.731 336.077 220.57 45.67 68.301 73.421 145.613 82.944 230.912 2.253 20.173 2.56 77.619 0.512 98.304-8.499 86.118-35.021 162.509-80.896 232.96-20.173 31.027-39.526 54.784-66.253 81.408-41.779 41.779-86.528 73.933-137.216 98.816-56.218 27.546-108.442 42.394-174.080 49.766-16.998 1.843-66.765 2.662-86.016 1.331zM562.688 907.264c104.141-12.186 196.403-55.808 270.746-128 38.298-37.274 68.915-79.155 92.467-126.976 44.544-90.419 58.266-194.765 38.605-293.888-8.397-42.189-20.48-77.312-40.55-117.248-23.040-45.978-48.742-81.408-86.221-118.886-37.376-37.376-72.294-62.771-118.374-86.016-49.254-24.781-94.208-38.502-151.040-46.080-23.040-3.072-76.493-3.891-100.864-1.434-91.853 9.011-176.128 43.622-247.194 101.478-86.938 70.963-145.306 170.598-163.84 279.962-4.915 28.672-5.734 39.936-5.734 78.336 0 39.731 0.922 51.098 6.246 81.408 24.166 135.578 108.954 254.157 230.093 322.048 54.989 30.72 118.579 50.483 180.224 55.808 6.861 0.512 14.131 1.229 16.077 1.434 9.114 1.024 65.946-0.307 79.36-1.946zM421.376 672.051c-0.307-0.717-0.41-23.654-0.307-50.995l0.307-49.664 16.691-0.307 16.589-0.205v68.608h113.664v-68.608h33.792v102.4h-90.112c-71.168 0-90.317-0.307-90.624-1.229zM256 542.72v-50.688h512v101.376h-143.36v-45.056l-39.117 0.205-39.219 0.307-0.307 22.323-0.205 22.221h-70.656v-45.056h-75.469l-0.717 4.301c-0.41 2.253-0.41 12.39 0 22.528l0.717 18.227h-143.667v-50.688zM256 351.744v-117.76h512v235.52h-188.416v-106.496h-113.664v106.496h-209.92v-117.76zM488.448 427.52v-41.984h68.608v83.968h-68.608v-41.984z" />
</font>
</defs>
</svg>
